<svg xmlns="http://www.w3.org/2000/svg" xmlns:xlink="http://www.w3.org/1999/xlink" width="1782pt" height="476pt" viewBox="0.00 0.00 1782.00 476.00">
<g id="graph0" class="graph" transform="scale(1 1) rotate(0) translate(4 472)">
<title>G</title>
<polygon fill="white" stroke="none" points="-4,4 -4,-472 1778,-472 1778,4 -4,4"/>
<!-- :app -->
<g id="node1" class="node">
<title>:app</title>
<ellipse fill="none" stroke="black" cx="905" cy="-450" rx="27.66" ry="18"/>
<text text-anchor="middle" x="905" y="-445.8" font-family="Times,serif" font-size="14.00">:app</text>
</g>
<!-- :core:designsystem -->
<g id="node2" class="node">
<title>:core:designsystem</title>
<ellipse fill="none" stroke="black" cx="1018" cy="-90" rx="85.06" ry="18"/>
<text text-anchor="middle" x="1018" y="-85.8" font-family="Times,serif" font-size="14.00">:core:designsystem</text>
</g>
<!-- :app&#45;&gt;:core:designsystem -->
<g id="edge1" class="edge">
<title>:app-&gt;:core:designsystem</title>
<path fill="none" stroke="black" d="M932.44,-447.49C1080.16,-438.99 1774,-394.42 1774,-307 1774,-307 1774,-307 1774,-233 1774,-125.05 1652.92,-169.39 1548,-144 1399.28,-108.01 1221.38,-96.4 1114.16,-92.69"/>
<polygon fill="black" stroke="black" points="1114.35,-89.2 1104.24,-92.37 1114.12,-96.2 1114.35,-89.2"/>
</g>
<!-- :core:domain -->
<g id="node3" class="node">
<title>:core:domain</title>
<ellipse fill="none" stroke="black" cx="522" cy="-18" rx="61.99" ry="18"/>
<text text-anchor="middle" x="522" y="-13.8" font-family="Times,serif" font-size="14.00">:core:domain</text>
</g>
<!-- :app&#45;&gt;:core:domain -->
<g id="edge2" class="edge">
<title>:app-&gt;:core:domain</title>
<path fill="none" stroke="black" d="M877.07,-448.22C743.66,-444.33 174.88,-426.1 102,-396 46.39,-373.03 0,-367.16 0,-307 0,-307 0,-307 0,-161 0,-68.76 307.33,-34.47 450.36,-23.5"/>
<polygon fill="black" stroke="black" points="450.39,-27.01 460.1,-22.78 449.87,-20.03 450.39,-27.01"/>
</g>
<!-- :core:uihelper -->
<g id="node4" class="node">
<title>:core:uihelper</title>
<ellipse fill="none" stroke="black" cx="1111" cy="-234" rx="64.66" ry="18"/>
<text text-anchor="middle" x="1111" y="-229.8" font-family="Times,serif" font-size="14.00">:core:uihelper</text>
</g>
<!-- :app&#45;&gt;:core:uihelper -->
<g id="edge3" class="edge">
<title>:app-&gt;:core:uihelper</title>
<path fill="none" stroke="black" d="M920.18,-434.69C944.34,-411.79 992.8,-365.27 1032,-324 1052.05,-302.89 1073.97,-278.05 1089.62,-259.98"/>
<polygon fill="black" stroke="black" points="1091.89,-262.71 1095.78,-252.85 1086.59,-258.13 1091.89,-262.71"/>
</g>
<!-- :core:user -->
<g id="node5" class="node">
<title>:core:user</title>
<ellipse fill="none" stroke="black" cx="475" cy="-234" rx="49.11" ry="18"/>
<text text-anchor="middle" x="475" y="-229.8" font-family="Times,serif" font-size="14.00">:core:user</text>
</g>
<!-- :app&#45;&gt;:core:user -->
<g id="edge4" class="edge">
<title>:app-&gt;:core:user</title>
<path fill="none" stroke="black" d="M877.67,-445.53C790.73,-433.87 523.57,-392.83 478,-324 466.32,-306.36 466.27,-282.16 468.75,-263.44"/>
<polygon fill="black" stroke="black" points="472.16,-264.26 470.35,-253.82 465.26,-263.12 472.16,-264.26"/>
</g>
<!-- :feature:about -->
<g id="node6" class="node">
<title>:feature:about</title>
<ellipse fill="none" stroke="black" cx="1288" cy="-306" rx="64.66" ry="18"/>
<text text-anchor="middle" x="1288" y="-301.8" font-family="Times,serif" font-size="14.00">:feature:about</text>
</g>
<!-- :app&#45;&gt;:feature:about -->
<g id="edge5" class="edge">
<title>:app-&gt;:feature:about</title>
<path fill="none" stroke="black" d="M931.04,-443.34C968.53,-434.85 1039.64,-417.5 1098,-396 1151.74,-376.2 1211.13,-347.15 1248.97,-327.68"/>
<polygon fill="black" stroke="black" points="1250.43,-330.87 1257.7,-323.16 1247.21,-324.65 1250.43,-330.87"/>
</g>
<!-- :feature:detail -->
<g id="node7" class="node">
<title>:feature:detail</title>
<ellipse fill="none" stroke="black" cx="814" cy="-306" rx="64.65" ry="18"/>
<text text-anchor="middle" x="814" y="-301.8" font-family="Times,serif" font-size="14.00">:feature:detail</text>
</g>
<!-- :app&#45;&gt;:feature:detail -->
<g id="edge6" class="edge">
<title>:app-&gt;:feature:detail</title>
<path fill="none" stroke="black" d="M894.74,-432.99C879.27,-408.85 849.8,-362.87 831.07,-333.63"/>
<polygon fill="black" stroke="black" points="834.09,-331.86 825.75,-325.33 828.2,-335.64 834.09,-331.86"/>
</g>
<!-- :feature:favorite -->
<g id="node8" class="node">
<title>:feature:favorite</title>
<ellipse fill="none" stroke="black" cx="358" cy="-378" rx="73.23" ry="18"/>
<text text-anchor="middle" x="358" y="-373.8" font-family="Times,serif" font-size="14.00">:feature:favorite</text>
</g>
<!-- :app&#45;&gt;:feature:favorite -->
<g id="edge7" class="edge">
<title>:app-&gt;:feature:favorite</title>
<path fill="none" stroke="red" stroke-width="2" d="M877.42,-446.58C805.82,-440.14 608.25,-421.31 445,-396 438.11,-394.93 430.94,-393.71 423.8,-392.42"/>
<polygon fill="red" stroke="red" stroke-width="2" points="426.1,-389.29 415.62,-390.91 424.82,-396.17 426.1,-389.29"/>
</g>
<!-- :feature:home -->
<g id="node9" class="node">
<title>:feature:home</title>
<ellipse fill="none" stroke="black" cx="552" cy="-306" rx="64.66" ry="18"/>
<text text-anchor="middle" x="552" y="-301.8" font-family="Times,serif" font-size="14.00">:feature:home</text>
</g>
<!-- :app&#45;&gt;:feature:home -->
<g id="edge8" class="edge">
<title>:app-&gt;:feature:home</title>
<path fill="none" stroke="black" d="M878.34,-444.16C839.63,-436.62 766.05,-420.37 707,-396 662.74,-377.74 615.52,-349.16 585,-329.33"/>
<polygon fill="black" stroke="black" points="587.24,-326.62 576.96,-324.06 583.4,-332.47 587.24,-326.62"/>
</g>
<!-- :feature:login -->
<g id="node10" class="node">
<title>:feature:login</title>
<ellipse fill="none" stroke="black" cx="1142" cy="-306" rx="63.06" ry="18"/>
<text text-anchor="middle" x="1142" y="-301.8" font-family="Times,serif" font-size="14.00">:feature:login</text>
</g>
<!-- :app&#45;&gt;:feature:login -->
<g id="edge9" class="edge">
<title>:app-&gt;:feature:login</title>
<path fill="none" stroke="black" d="M931.85,-444.65C965.3,-438.27 1023.14,-423.95 1065,-396 1089.57,-379.6 1110.94,-353.34 1124.9,-333.58"/>
<polygon fill="black" stroke="black" points="1127.7,-335.69 1130.46,-325.46 1121.92,-331.73 1127.7,-335.69"/>
</g>
<!-- :feature:more -->
<g id="node11" class="node">
<title>:feature:more</title>
<ellipse fill="none" stroke="black" cx="960" cy="-306" rx="63.05" ry="18"/>
<text text-anchor="middle" x="960" y="-301.8" font-family="Times,serif" font-size="14.00">:feature:more</text>
</g>
<!-- :app&#45;&gt;:feature:more -->
<g id="edge10" class="edge">
<title>:app-&gt;:feature:more</title>
<path fill="none" stroke="black" d="M911.53,-432.15C920.82,-408.16 937.98,-363.84 949.19,-334.9"/>
<polygon fill="black" stroke="black" points="952.42,-336.27 952.77,-325.68 945.89,-333.74 952.42,-336.27"/>
</g>
<!-- :feature:person -->
<g id="node12" class="node">
<title>:feature:person</title>
<ellipse fill="none" stroke="black" cx="1594" cy="-306" rx="68.95" ry="18"/>
<text text-anchor="middle" x="1594" y="-301.8" font-family="Times,serif" font-size="14.00">:feature:person</text>
</g>
<!-- :app&#45;&gt;:feature:person -->
<g id="edge11" class="edge">
<title>:app-&gt;:feature:person</title>
<path fill="none" stroke="black" d="M931.84,-445.28C987.24,-437.44 1118.18,-418.12 1227,-396 1336.93,-373.66 1463.85,-341.42 1535.95,-322.5"/>
<polygon fill="black" stroke="black" points="1536.79,-325.9 1545.57,-319.97 1535.01,-319.13 1536.79,-325.9"/>
</g>
<!-- :feature:search -->
<g id="node13" class="node">
<title>:feature:search</title>
<ellipse fill="none" stroke="black" cx="1439" cy="-306" rx="67.87" ry="18"/>
<text text-anchor="middle" x="1439" y="-301.8" font-family="Times,serif" font-size="14.00">:feature:search</text>
</g>
<!-- :app&#45;&gt;:feature:search -->
<g id="edge12" class="edge">
<title>:app-&gt;:feature:search</title>
<path fill="none" stroke="black" d="M931.36,-444.23C977.01,-435.77 1073.62,-417.06 1154,-396 1236.74,-374.33 1331.22,-343.62 1387.93,-324.53"/>
<polygon fill="black" stroke="black" points="1388.97,-327.87 1397.32,-321.35 1386.73,-321.24 1388.97,-327.87"/>
</g>
<!-- :feature:watchlist -->
<g id="node14" class="node">
<title>:feature:watchlist</title>
<ellipse fill="none" stroke="black" cx="189" cy="-378" rx="78.07" ry="18"/>
<text text-anchor="middle" x="189" y="-373.8" font-family="Times,serif" font-size="14.00">:feature:watchlist</text>
</g>
<!-- :app&#45;&gt;:feature:watchlist -->
<g id="edge13" class="edge">
<title>:app-&gt;:feature:watchlist</title>
<path fill="none" stroke="black" d="M877.29,-447.74C789.11,-443.52 507.19,-428.23 276,-396 269.56,-395.1 262.87,-394.04 256.19,-392.88"/>
<polygon fill="black" stroke="black" points="256.96,-389.47 246.5,-391.14 255.72,-396.36 256.96,-389.47"/>
</g>
<!-- :navigation -->
<g id="node15" class="node">
<title>:navigation</title>
<ellipse fill="none" stroke="black" cx="860" cy="-234" rx="54.48" ry="18"/>
<text text-anchor="middle" x="860" y="-229.8" font-family="Times,serif" font-size="14.00">:navigation</text>
</g>
<!-- :app&#45;&gt;:navigation -->
<g id="edge14" class="edge">
<title>:app-&gt;:navigation</title>
<path fill="none" stroke="black" d="M881.72,-439.63C843.77,-422.93 769.83,-384.02 740,-324 732.88,-309.67 731.27,-301.41 740,-288 748.42,-275.08 781.49,-261.01 810.78,-250.61"/>
<polygon fill="black" stroke="black" points="811.62,-254.02 819.93,-247.45 809.33,-247.41 811.62,-254.02"/>
</g>
<!-- :core:uihelper&#45;&gt;:core:designsystem -->
<g id="edge16" class="edge">
<title>:core:uihelper-&gt;:core:designsystem</title>
<path fill="none" stroke="black" d="M1146.27,-218.5C1162.39,-209.88 1179.88,-197.22 1189,-180 1196.49,-165.86 1198.49,-156.88 1189,-144 1170.44,-118.82 1140.05,-105.25 1109.99,-98.05"/>
<polygon fill="black" stroke="black" points="1110.95,-94.67 1100.44,-95.99 1109.48,-101.51 1110.95,-94.67"/>
</g>
<!-- :core:common -->
<g id="node16" class="node">
<title>:core:common</title>
<ellipse fill="none" stroke="black" cx="1113" cy="-162" rx="66.81" ry="18"/>
<text text-anchor="middle" x="1113" y="-157.8" font-family="Times,serif" font-size="14.00">:core:common</text>
</g>
<!-- :core:uihelper&#45;&gt;:core:common -->
<g id="edge15" class="edge">
<title>:core:uihelper-&gt;:core:common</title>
<path fill="none" stroke="black" d="M1111.49,-215.7C1111.7,-208.41 1111.95,-199.73 1112.18,-191.54"/>
<polygon fill="black" stroke="black" points="1115.68,-191.71 1112.47,-181.62 1108.68,-191.51 1115.68,-191.71"/>
</g>
<!-- :core:utils -->
<g id="node17" class="node">
<title>:core:utils</title>
<ellipse fill="none" stroke="black" cx="902" cy="-162" rx="49.65" ry="18"/>
<text text-anchor="middle" x="902" y="-157.8" font-family="Times,serif" font-size="14.00">:core:utils</text>
</g>
<!-- :core:uihelper&#45;&gt;:core:utils -->
<g id="edge17" class="edge">
<title>:core:uihelper-&gt;:core:utils</title>
<path fill="none" stroke="black" d="M1070.7,-219.5C1035.77,-207.8 985.2,-190.87 948.54,-178.59"/>
<polygon fill="black" stroke="black" points="949.68,-175.28 939.08,-175.42 947.45,-181.91 949.68,-175.28"/>
</g>
<!-- :core:user&#45;&gt;:core:domain -->
<g id="edge18" class="edge">
<title>:core:user-&gt;:core:domain</title>
<path fill="none" stroke="black" d="M464.32,-216.41C446.22,-185.99 413.88,-119.99 440,-72 447.83,-57.62 461.41,-46.55 475.31,-38.34"/>
<polygon fill="black" stroke="black" points="476.95,-41.43 484.07,-33.58 473.61,-35.28 476.95,-41.43"/>
</g>
<!-- :core:user&#45;&gt;:core:common -->
<g id="edge20" class="edge">
<title>:core:user-&gt;:core:common</title>
<path fill="none" stroke="black" d="M520.55,-226.94C546.46,-223.57 579.53,-219.38 609,-216 765.24,-198.1 804.63,-196.74 961,-180 987.1,-177.21 1015.71,-174.03 1041,-171.19"/>
<polygon fill="black" stroke="black" points="1041.31,-174.68 1050.86,-170.08 1040.53,-167.72 1041.31,-174.68"/>
</g>
<!-- :core:network -->
<g id="node18" class="node">
<title>:core:network</title>
<ellipse fill="none" stroke="black" cx="514" cy="-90" rx="64.66" ry="18"/>
<text text-anchor="middle" x="514" y="-85.8" font-family="Times,serif" font-size="14.00">:core:network</text>
</g>
<!-- :core:user&#45;&gt;:core:network -->
<g id="edge19" class="edge">
<title>:core:user-&gt;:core:network</title>
<path fill="none" stroke="black" d="M479.78,-215.59C486.4,-191.5 498.41,-147.75 506.3,-119.03"/>
<polygon fill="black" stroke="black" points="509.63,-120.14 508.9,-109.57 502.88,-118.29 509.63,-120.14"/>
</g>
<!-- :core:mappers -->
<g id="node19" class="node">
<title>:core:mappers</title>
<ellipse fill="none" stroke="black" cx="249" cy="-162" rx="65.73" ry="18"/>
<text text-anchor="middle" x="249" y="-157.8" font-family="Times,serif" font-size="14.00">:core:mappers</text>
</g>
<!-- :core:user&#45;&gt;:core:mappers -->
<g id="edge21" class="edge">
<title>:core:user-&gt;:core:mappers</title>
<path fill="none" stroke="black" d="M438.44,-221.68C401.51,-210.24 344.08,-192.45 302.13,-179.46"/>
<polygon fill="black" stroke="black" points="303.32,-176.16 292.73,-176.54 301.24,-182.85 303.32,-176.16"/>
</g>
<!-- :feature:about&#45;&gt;:core:designsystem -->
<g id="edge22" class="edge">
<title>:feature:about-&gt;:core:designsystem</title>
<path fill="none" stroke="black" d="M1286.68,-287.53C1283.21,-254.42 1270.88,-182.42 1228,-144 1196.58,-115.85 1152.37,-102.19 1112.61,-95.73"/>
<polygon fill="black" stroke="black" points="1113.16,-92.28 1102.76,-94.28 1112.14,-99.2 1113.16,-92.28"/>
</g>
<!-- :feature:about&#45;&gt;:core:uihelper -->
<g id="edge25" class="edge">
<title>:feature:about-&gt;:core:uihelper</title>
<path fill="none" stroke="black" d="M1251.75,-290.67C1224.55,-279.91 1187.08,-265.09 1157.65,-253.45"/>
<polygon fill="black" stroke="black" points="1159.19,-250.29 1148.6,-249.87 1156.62,-256.8 1159.19,-250.29"/>
</g>
<!-- :feature:about&#45;&gt;:navigation -->
<g id="edge23" class="edge">
<title>:feature:about-&gt;:navigation</title>
<path fill="none" stroke="black" d="M1240.35,-293.48C1231.61,-291.53 1222.55,-289.62 1214,-288 1112.06,-268.69 992.52,-252.02 921.69,-242.77"/>
<polygon fill="black" stroke="black" points="922.2,-239.3 911.83,-241.49 921.3,-246.24 922.2,-239.3"/>
</g>
<!-- :feature:about&#45;&gt;:core:common -->
<g id="edge24" class="edge">
<title>:feature:about-&gt;:core:common</title>
<path fill="none" stroke="black" d="M1273.73,-287.99C1257.36,-269.07 1229.13,-238.26 1201,-216 1186.09,-204.2 1168.33,-193.03 1152.68,-184.02"/>
<polygon fill="black" stroke="black" points="1154.5,-181.03 1144.07,-179.17 1151.07,-187.13 1154.5,-181.03"/>
</g>
<!-- :feature:detail&#45;&gt;:core:designsystem -->
<g id="edge26" class="edge">
<title>:feature:detail-&gt;:core:designsystem</title>
<path fill="none" stroke="black" d="M862.31,-293.6C887.93,-285.53 918.48,-272.41 940,-252 978.87,-215.13 1000.78,-154.85 1010.93,-119.44"/>
<polygon fill="black" stroke="black" points="1014.27,-120.49 1013.53,-109.92 1007.52,-118.65 1014.27,-120.49"/>
</g>
<!-- :feature:detail&#45;&gt;:core:uihelper -->
<g id="edge31" class="edge">
<title>:feature:detail-&gt;:core:uihelper</title>
<path fill="none" stroke="black" d="M862.05,-293.68C913.81,-281.48 996.22,-262.05 1051.91,-248.93"/>
<polygon fill="black" stroke="black" points="1052.62,-252.36 1061.55,-246.66 1051.01,-245.54 1052.62,-252.36"/>
</g>
<!-- :feature:detail&#45;&gt;:core:user -->
<g id="edge30" class="edge">
<title>:feature:detail-&gt;:core:user</title>
<path fill="none" stroke="black" d="M763.25,-294.52C700,-281.46 592.41,-259.24 528.09,-245.96"/>
<polygon fill="black" stroke="black" points="528.98,-242.57 518.47,-243.98 527.56,-249.43 528.98,-242.57"/>
</g>
<!-- :feature:detail&#45;&gt;:navigation -->
<g id="edge27" class="edge">
<title>:feature:detail-&gt;:navigation</title>
<path fill="none" stroke="black" d="M825.14,-288.05C830.39,-280.06 836.78,-270.33 842.65,-261.4"/>
<polygon fill="black" stroke="black" points="845.57,-263.33 848.14,-253.05 839.72,-259.49 845.57,-263.33"/>
</g>
<!-- :feature:detail&#45;&gt;:core:utils -->
<g id="edge32" class="edge">
<title>:feature:detail-&gt;:core:utils</title>
<path fill="none" stroke="black" d="M863.11,-293.85C885.44,-286.06 909.77,-273.14 923,-252 934.69,-233.32 927.53,-208.75 918.53,-190.15"/>
<polygon fill="black" stroke="black" points="921.63,-188.52 913.85,-181.32 915.44,-191.79 921.63,-188.52"/>
</g>
<!-- :core:database -->
<g id="node20" class="node">
<title>:core:database</title>
<ellipse fill="none" stroke="black" cx="684" cy="-234" rx="66.26" ry="18"/>
<text text-anchor="middle" x="684" y="-229.8" font-family="Times,serif" font-size="14.00">:core:database</text>
</g>
<!-- :feature:detail&#45;&gt;:core:database -->
<g id="edge28" class="edge">
<title>:feature:detail-&gt;:core:database</title>
<path fill="none" stroke="black" d="M785.15,-289.46C766.8,-279.59 742.82,-266.67 722.82,-255.9"/>
<polygon fill="black" stroke="black" points="724.57,-252.87 714.1,-251.21 721.25,-259.03 724.57,-252.87"/>
</g>
<!-- :core:movie -->
<g id="node21" class="node">
<title>:core:movie</title>
<ellipse fill="none" stroke="black" cx="313" cy="-234" rx="57.16" ry="18"/>
<text text-anchor="middle" x="313" y="-229.8" font-family="Times,serif" font-size="14.00">:core:movie</text>
</g>
<!-- :feature:detail&#45;&gt;:core:movie -->
<g id="edge29" class="edge">
<title>:feature:detail-&gt;:core:movie</title>
<path fill="none" stroke="black" d="M755.74,-297.76C678.28,-288.02 537.2,-269.84 417,-252 402.93,-249.91 387.82,-247.52 373.6,-245.21"/>
<polygon fill="black" stroke="black" points="374.34,-241.79 363.91,-243.63 373.21,-248.7 374.34,-241.79"/>
</g>
<!-- :feature:favorite&#45;&gt;:core:designsystem -->
<g id="edge33" class="edge">
<title>:feature:favorite-&gt;:core:designsystem</title>
<path fill="none" stroke="black" d="M310.38,-364.01C276.76,-353.76 235.99,-338.78 226,-324 208.39,-297.95 242.79,-219.82 247,-216 297.25,-170.4 740.26,-119.69 931.13,-99.74"/>
<polygon fill="black" stroke="black" points="931.42,-103.23 941,-98.71 930.69,-96.27 931.42,-103.23"/>
</g>
<!-- :feature:favorite&#45;&gt;:navigation -->
<g id="edge34" class="edge">
<title>:feature:favorite-&gt;:navigation</title>
<path fill="none" stroke="black" d="M429.72,-373.77C492.45,-368.78 584.87,-356.12 659,-324 683.47,-313.4 683.45,-300.51 707,-288 738.73,-271.14 776.91,-257.9 807.19,-248.88"/>
<polygon fill="black" stroke="black" points="807.89,-252.32 816.51,-246.17 805.93,-245.6 807.89,-252.32"/>
</g>
<!-- :core:favoritewatchlist -->
<g id="node22" class="node">
<title>:core:favoritewatchlist</title>
<ellipse fill="none" stroke="black" cx="333" cy="-306" rx="97.91" ry="18"/>
<text text-anchor="middle" x="333" y="-301.8" font-family="Times,serif" font-size="14.00">:core:favoritewatchlist</text>
</g>
<!-- :feature:favorite&#45;&gt;:core:favoritewatchlist -->
<g id="edge35" class="edge">
<title>:feature:favorite-&gt;:core:favoritewatchlist</title>
<path fill="none" stroke="red" stroke-width="2" d="M351.82,-359.7C349.13,-352.15 345.9,-343.12 342.89,-334.68"/>
<polygon fill="red" stroke="red" stroke-width="2" points="346.79,-335.2 340.13,-326.96 340.19,-337.55 346.79,-335.2"/>
</g>
<!-- :feature:home&#45;&gt;:core:designsystem -->
<g id="edge36" class="edge">
<title>:feature:home-&gt;:core:designsystem</title>
<path fill="none" stroke="black" d="M550.97,-287.52C550.79,-267.6 553.68,-235.3 572,-216 622.23,-163.08 825.33,-122.38 939.35,-103.16"/>
<polygon fill="black" stroke="black" points="939.66,-106.66 948.95,-101.56 938.51,-99.76 939.66,-106.66"/>
</g>
<!-- :feature:home&#45;&gt;:core:uihelper -->
<g id="edge39" class="edge">
<title>:feature:home-&gt;:core:uihelper</title>
<path fill="none" stroke="black" d="M610.24,-297.71C713.95,-284.72 930.16,-257.64 1041.48,-243.71"/>
<polygon fill="black" stroke="black" points="1041.9,-247.18 1051.39,-242.46 1041.03,-240.23 1041.9,-247.18"/>
</g>
<!-- :feature:home&#45;&gt;:core:user -->
<g id="edge42" class="edge">
<title>:feature:home-&gt;:core:user</title>
<path fill="none" stroke="black" d="M533.75,-288.41C524,-279.54 511.82,-268.47 501.08,-258.71"/>
<polygon fill="black" stroke="black" points="503.73,-256.38 493.97,-252.25 499.02,-261.56 503.73,-256.38"/>
</g>
<!-- :feature:home&#45;&gt;:navigation -->
<g id="edge37" class="edge">
<title>:feature:home-&gt;:navigation</title>
<path fill="none" stroke="black" d="M601.8,-294.17C661.06,-281.26 756.44,-260.37 792,-252 796.86,-250.86 801.91,-249.64 806.97,-248.41"/>
<polygon fill="black" stroke="black" points="807.62,-251.85 816.5,-246.06 805.95,-245.05 807.62,-251.85"/>
</g>
<!-- :feature:home&#45;&gt;:core:common -->
<g id="edge38" class="edge">
<title>:feature:home-&gt;:core:common</title>
<path fill="none" stroke="black" d="M600.72,-293.89C657.42,-280.74 745.12,-259.67 759,-252 779.37,-240.75 776.18,-226.38 797,-216 818.65,-205.21 956.76,-184.62 1043.08,-172.52"/>
<polygon fill="black" stroke="black" points="1043.46,-176 1052.88,-171.15 1042.49,-169.07 1043.46,-176"/>
</g>
<!-- :feature:home&#45;&gt;:core:utils -->
<g id="edge40" class="edge">
<title>:feature:home-&gt;:core:utils</title>
<path fill="none" stroke="black" d="M558.06,-287.85C566.26,-267.3 582.93,-233.46 609,-216 646.43,-190.93 768.72,-175.43 842.96,-168.09"/>
<polygon fill="black" stroke="black" points="842.87,-171.61 852.49,-167.17 842.2,-164.65 842.87,-171.61"/>
</g>
<!-- :feature:home&#45;&gt;:core:mappers -->
<g id="edge41" class="edge">
<title>:feature:home-&gt;:core:mappers</title>
<path fill="none" stroke="black" d="M496.61,-296.3C409.78,-282.52 251.02,-256.77 247,-252 233.09,-235.47 234.97,-210.46 239.54,-191.15"/>
<polygon fill="black" stroke="black" points="242.85,-192.31 242.13,-181.74 236.1,-190.45 242.85,-192.31"/>
</g>
<!-- :feature:login&#45;&gt;:core:designsystem -->
<g id="edge43" class="edge">
<title>:feature:login-&gt;:core:designsystem</title>
<path fill="none" stroke="black" d="M1167.21,-289.27C1179.66,-280.05 1193.57,-267.22 1201,-252 1222.08,-208.82 1235,-182.31 1206,-144 1192.34,-125.95 1141.8,-112.32 1096.57,-103.4"/>
<polygon fill="black" stroke="black" points="1097.47,-100.01 1087,-101.57 1096.16,-106.88 1097.47,-100.01"/>
</g>
<!-- :feature:login&#45;&gt;:core:domain -->
<g id="edge46" class="edge">
<title>:feature:login-&gt;:core:domain</title>
<path fill="none" stroke="black" d="M1177.65,-290.75C1194.36,-282.13 1212.8,-269.4 1223,-252 1247.31,-210.55 1251.36,-185.99 1228,-144 1198.5,-90.97 1169.74,-90.66 1112,-72 893.68,-1.43 823.99,-69.46 597,-36 591.06,-35.12 584.88,-34.03 578.75,-32.82"/>
<polygon fill="black" stroke="black" points="579.79,-29.46 569.28,-30.86 578.36,-36.32 579.79,-29.46"/>
</g>
<!-- :feature:login&#45;&gt;:core:uihelper -->
<g id="edge47" class="edge">
<title>:feature:login-&gt;:core:uihelper</title>
<path fill="none" stroke="black" d="M1134.34,-287.7C1130.96,-280.07 1126.91,-270.92 1123.13,-262.4"/>
<polygon fill="black" stroke="black" points="1126.44,-261.21 1119.19,-253.49 1120.04,-264.05 1126.44,-261.21"/>
</g>
<!-- :feature:login&#45;&gt;:core:user -->
<g id="edge48" class="edge">
<title>:feature:login-&gt;:core:user</title>
<path fill="none" stroke="black" d="M1088.67,-296.01C1070.7,-293.18 1050.52,-290.22 1032,-288 844.66,-265.58 796.63,-271.88 609,-252 583.65,-249.31 555.66,-245.84 531.85,-242.74"/>
<polygon fill="black" stroke="black" points="532.4,-239.28 522.03,-241.45 531.49,-246.22 532.4,-239.28"/>
</g>
<!-- :feature:login&#45;&gt;:navigation -->
<g id="edge44" class="edge">
<title>:feature:login-&gt;:navigation</title>
<path fill="none" stroke="black" d="M1095.43,-293.44C1045.44,-281.03 966.14,-261.35 913.59,-248.3"/>
<polygon fill="black" stroke="black" points="914.5,-244.92 903.95,-245.91 912.81,-251.72 914.5,-244.92"/>
</g>
<!-- :feature:login&#45;&gt;:core:common -->
<g id="edge45" class="edge">
<title>:feature:login-&gt;:core:common</title>
<path fill="none" stroke="black" d="M1160.14,-288.76C1169.52,-279.13 1180.01,-266.07 1185,-252 1190.35,-236.92 1192.22,-230.28 1185,-216 1178.42,-202.99 1166.99,-192.4 1155.14,-184.19"/>
<polygon fill="black" stroke="black" points="1157.22,-181.37 1146.91,-178.94 1153.45,-187.27 1157.22,-181.37"/>
</g>
<!-- :feature:more&#45;&gt;:core:designsystem -->
<g id="edge49" class="edge">
<title>:feature:more-&gt;:core:designsystem</title>
<path fill="none" stroke="black" d="M973.31,-288.32C980.58,-278.35 989.08,-265.1 994,-252 1010.65,-207.66 1015.78,-152.38 1017.35,-119.48"/>
<polygon fill="black" stroke="black" points="1020.84,-119.68 1017.73,-109.55 1013.85,-119.41 1020.84,-119.68"/>
</g>
<!-- :feature:more&#45;&gt;:core:uihelper -->
<g id="edge51" class="edge">
<title>:feature:more-&gt;:core:uihelper</title>
<path fill="none" stroke="black" d="M992.02,-290.15C1014.27,-279.84 1044.16,-265.99 1068.41,-254.74"/>
<polygon fill="black" stroke="black" points="1069.79,-257.96 1077.39,-250.58 1066.85,-251.61 1069.79,-257.96"/>
</g>
<!-- :feature:more&#45;&gt;:core:user -->
<g id="edge53" class="edge">
<title>:feature:more-&gt;:core:user</title>
<path fill="none" stroke="black" d="M914.06,-293.4C905.43,-291.44 896.47,-289.54 888,-288 879.32,-286.42 643.43,-256.39 532.12,-242.25"/>
<polygon fill="black" stroke="black" points="532.65,-238.79 522.29,-241 531.77,-245.74 532.65,-238.79"/>
</g>
<!-- :feature:more&#45;&gt;:navigation -->
<g id="edge50" class="edge">
<title>:feature:more-&gt;:navigation</title>
<path fill="none" stroke="black" d="M937.31,-289.12C923.88,-279.72 906.67,-267.67 891.89,-257.33"/>
<polygon fill="black" stroke="black" points="894.04,-254.56 883.84,-251.69 890.03,-260.29 894.04,-254.56"/>
</g>
<!-- :feature:more&#45;&gt;:core:database -->
<g id="edge52" class="edge">
<title>:feature:more-&gt;:core:database</title>
<path fill="none" stroke="black" d="M914.11,-293.36C866.99,-281.41 793.49,-262.77 742.28,-249.78"/>
<polygon fill="black" stroke="black" points="743.4,-246.46 732.85,-247.39 741.68,-253.24 743.4,-246.46"/>
</g>
<!-- :feature:person&#45;&gt;:core:designsystem -->
<g id="edge54" class="edge">
<title>:feature:person-&gt;:core:designsystem</title>
<path fill="none" stroke="black" d="M1612.25,-288.22C1630.69,-269.23 1654.07,-238.09 1636,-216 1570.79,-136.28 1267.56,-106.22 1111.44,-95.89"/>
<polygon fill="black" stroke="black" points="1111.72,-92.4 1101.52,-95.25 1111.27,-99.38 1111.72,-92.4"/>
</g>
<!-- :feature:person&#45;&gt;:core:domain -->
<g id="edge57" class="edge">
<title>:feature:person-&gt;:core:domain</title>
<path fill="none" stroke="black" d="M1620.26,-289.02C1632.66,-279.89 1646.21,-267.22 1653,-252 1659.52,-237.39 1660.46,-230.16 1653,-216 1626.63,-165.94 1599.95,-166.43 1548,-144 1157.47,24.64 1018.19,-95.55 597,-36 590.97,-35.15 584.7,-34.06 578.48,-32.84"/>
<polygon fill="black" stroke="black" points="579.37,-29.45 568.87,-30.86 577.95,-36.31 579.37,-29.45"/>
</g>
<!-- :feature:person&#45;&gt;:core:uihelper -->
<g id="edge59" class="edge">
<title>:feature:person-&gt;:core:uihelper</title>
<path fill="none" stroke="black" d="M1543.77,-293.4C1534.56,-291.46 1525.01,-289.57 1516,-288 1399.57,-267.73 1263.09,-251.39 1182.01,-242.45"/>
<polygon fill="black" stroke="black" points="1182.77,-239.02 1172.45,-241.41 1182,-245.97 1182.77,-239.02"/>
</g>
<!-- :feature:person&#45;&gt;:navigation -->
<g id="edge55" class="edge">
<title>:feature:person-&gt;:navigation</title>
<path fill="none" stroke="black" d="M1544.68,-293.16C1535.2,-291.2 1525.33,-289.36 1516,-288 1304.75,-257.19 1249.71,-270.21 1037,-252 999,-248.75 956.46,-244.68 922.61,-241.33"/>
<polygon fill="black" stroke="black" points="923.28,-237.88 912.99,-240.38 922.59,-244.85 923.28,-237.88"/>
</g>
<!-- :feature:person&#45;&gt;:core:common -->
<g id="edge56" class="edge">
<title>:feature:person-&gt;:core:common</title>
<path fill="none" stroke="black" d="M1592.62,-287.83C1589.99,-267.26 1582.31,-233.39 1560,-216 1531.37,-193.69 1308.94,-175.85 1189.03,-167.74"/>
<polygon fill="black" stroke="black" points="1189.47,-164.26 1179.26,-167.09 1189.01,-171.25 1189.47,-164.26"/>
</g>
<!-- :feature:person&#45;&gt;:core:utils -->
<g id="edge60" class="edge">
<title>:feature:person-&gt;:core:utils</title>
<path fill="none" stroke="black" d="M1549.94,-291.8C1485.61,-272.91 1361.98,-238.01 1255,-216 1199.65,-204.61 1044.02,-182.55 959.07,-170.81"/>
<polygon fill="black" stroke="black" points="959.71,-167.36 949.32,-169.46 958.75,-174.29 959.71,-167.36"/>
</g>
<!-- :feature:person&#45;&gt;:core:network -->
<g id="edge58" class="edge">
<title>:feature:person-&gt;:core:network</title>
<path fill="none" stroke="black" d="M1597.9,-287.63C1601.25,-267.81 1603.18,-235.6 1586,-216 1561.98,-188.59 1302.06,-149.3 1266,-144 1020.33,-107.92 725.77,-96.21 589.72,-92.56"/>
<polygon fill="black" stroke="black" points="589.83,-89.06 579.74,-92.3 589.65,-96.06 589.83,-89.06"/>
</g>
<!-- :feature:search&#45;&gt;:core:designsystem -->
<g id="edge61" class="edge">
<title>:feature:search-&gt;:core:designsystem</title>
<path fill="none" stroke="black" d="M1446.45,-287.81C1453.56,-268.46 1461.16,-236.98 1446,-216 1405.23,-159.59 1210.55,-120.75 1098.31,-102.63"/>
<polygon fill="black" stroke="black" points="1098.96,-99.19 1088.54,-101.08 1097.86,-106.11 1098.96,-99.19"/>
</g>
<!-- :feature:search&#45;&gt;:core:domain -->
<g id="edge64" class="edge">
<title>:feature:search-&gt;:core:domain</title>
<path fill="none" stroke="black" d="M1426.22,-287.98C1391.19,-242.88 1288.37,-120.42 1170,-72 1051.91,-23.7 723.29,-54.16 597,-36 590.97,-35.13 584.71,-34.03 578.49,-32.82"/>
<polygon fill="black" stroke="black" points="579.38,-29.43 568.88,-30.82 577.96,-36.28 579.38,-29.43"/>
</g>
<!-- :feature:search&#45;&gt;:core:uihelper -->
<g id="edge66" class="edge">
<title>:feature:search-&gt;:core:uihelper</title>
<path fill="none" stroke="black" d="M1388.07,-293.69C1379.37,-291.77 1370.43,-289.82 1362,-288 1297.45,-274.06 1223.46,-258.49 1172.63,-247.85"/>
<polygon fill="black" stroke="black" points="1173.49,-244.45 1162.99,-245.83 1172.06,-251.31 1173.49,-244.45"/>
</g>
<!-- :feature:search&#45;&gt;:navigation -->
<g id="edge62" class="edge">
<title>:feature:search-&gt;:navigation</title>
<path fill="none" stroke="black" d="M1389.87,-293.29C1380.64,-291.34 1371.05,-289.47 1362,-288 1319.64,-281.11 1048.19,-253.73 923.04,-241.26"/>
<polygon fill="black" stroke="black" points="923.56,-237.79 913.26,-240.28 922.86,-244.76 923.56,-237.79"/>
</g>
<!-- :feature:search&#45;&gt;:core:common -->
<g id="edge63" class="edge">
<title>:feature:search-&gt;:core:common</title>
<path fill="none" stroke="black" d="M1423.66,-288.22C1404.26,-268.03 1368.92,-234.55 1332,-216 1317.92,-208.93 1234.82,-189.76 1175.15,-176.53"/>
<polygon fill="black" stroke="black" points="1175.93,-173.12 1165.41,-174.38 1174.42,-179.95 1175.93,-173.12"/>
</g>
<!-- :feature:search&#45;&gt;:core:utils -->
<g id="edge67" class="edge">
<title>:feature:search-&gt;:core:utils</title>
<path fill="none" stroke="black" d="M1402.95,-290.41C1354.2,-271.14 1264.22,-237.17 1185,-216 1107.58,-195.32 1016.15,-179.75 958.61,-171.01"/>
<polygon fill="black" stroke="black" points="959.47,-167.6 949.06,-169.58 958.43,-174.52 959.47,-167.6"/>
</g>
<!-- :feature:search&#45;&gt;:core:network -->
<g id="edge65" class="edge">
<title>:feature:search-&gt;:core:network</title>
<path fill="none" stroke="black" d="M1429.86,-288.02C1418.45,-268.26 1397.21,-235.82 1371,-216 1301.62,-163.53 1273.75,-163.62 1189,-144 1076.76,-118.01 740.66,-100.75 589.32,-94.09"/>
<polygon fill="black" stroke="black" points="589.53,-90.59 579.39,-93.65 589.22,-97.58 589.53,-90.59"/>
</g>
<!-- :feature:watchlist&#45;&gt;:core:designsystem -->
<g id="edge68" class="edge">
<title>:feature:watchlist-&gt;:core:designsystem</title>
<path fill="none" stroke="black" d="M178.47,-359.9C153.65,-317.19 97.73,-204.9 155,-144 168.05,-130.13 702.9,-104.94 923.93,-95.09"/>
<polygon fill="black" stroke="black" points="923.82,-98.6 933.66,-94.66 923.51,-91.61 923.82,-98.6"/>
</g>
<!-- :feature:watchlist&#45;&gt;:navigation -->
<g id="edge69" class="edge">
<title>:feature:watchlist-&gt;:navigation</title>
<path fill="none" stroke="black" d="M245.5,-365.19C255.63,-363.29 266.11,-361.47 276,-360 353.34,-348.49 556.14,-359.11 626,-324 645.39,-314.25 640.42,-299.22 659,-288 662.26,-286.03 748.44,-263.66 806.88,-248.62"/>
<polygon fill="black" stroke="black" points="807.53,-252.07 816.34,-246.19 805.79,-245.29 807.53,-252.07"/>
</g>
<!-- :feature:watchlist&#45;&gt;:core:favoritewatchlist -->
<g id="edge70" class="edge">
<title>:feature:watchlist-&gt;:core:favoritewatchlist</title>
<path fill="none" stroke="black" d="M221.32,-361.29C241.43,-351.51 267.56,-338.81 289.48,-328.15"/>
<polygon fill="black" stroke="black" points="290.72,-331.45 298.18,-323.93 287.66,-325.15 290.72,-331.45"/>
</g>
<!-- :navigation&#45;&gt;:core:domain -->
<g id="edge71" class="edge">
<title>:navigation-&gt;:core:domain</title>
<path fill="none" stroke="black" d="M835.23,-217.72C797.69,-194.48 724.27,-148.63 663,-108 639.57,-92.47 634.64,-87.2 611,-72 594.09,-61.13 574.97,-49.64 558.81,-40.16"/>
<polygon fill="black" stroke="black" points="560.87,-37.31 550.47,-35.29 557.35,-43.36 560.87,-37.31"/>
</g>
<!-- :core:utils&#45;&gt;:core:designsystem -->
<g id="edge72" class="edge">
<title>:core:utils-&gt;:core:designsystem</title>
<path fill="none" stroke="black" d="M926.88,-145.98C942.72,-136.42 963.52,-123.88 981.24,-113.18"/>
<polygon fill="black" stroke="black" points="982.67,-116.4 989.43,-108.24 979.06,-110.41 982.67,-116.4"/>
</g>
<!-- :core:utils&#45;&gt;:core:domain -->
<g id="edge73" class="edge">
<title>:core:utils-&gt;:core:domain</title>
<path fill="none" stroke="black" d="M868.28,-148.4C800.45,-123.05 647.35,-65.84 569.45,-36.73"/>
<polygon fill="black" stroke="black" points="570.99,-33.57 560.4,-33.35 568.54,-40.13 570.99,-33.57"/>
</g>
<!-- :core:network&#45;&gt;:core:domain -->
<g id="edge74" class="edge">
<title>:core:network-&gt;:core:domain</title>
<path fill="none" stroke="red" stroke-width="2" d="M515.98,-71.7C516.81,-64.41 517.8,-55.73 518.74,-47.54"/>
<polygon fill="red" stroke="red" stroke-width="2" points="522.04,-49.44 519.7,-39.11 515.09,-48.65 522.04,-49.44"/>
</g>
<!-- :core:coroutines -->
<g id="node23" class="node">
<title>:core:coroutines</title>
<ellipse fill="none" stroke="black" cx="679" cy="-18" rx="73.25" ry="18"/>
<text text-anchor="middle" x="679" y="-13.8" font-family="Times,serif" font-size="14.00">:core:coroutines</text>
</g>
<!-- :core:network&#45;&gt;:core:coroutines -->
<g id="edge75" class="edge">
<title>:core:network-&gt;:core:coroutines</title>
<path fill="none" stroke="black" d="M548.59,-74.33C573.12,-63.92 606.29,-49.85 633.04,-38.5"/>
<polygon fill="black" stroke="black" points="634.08,-41.86 641.92,-34.73 631.35,-35.41 634.08,-41.86"/>
</g>
<!-- :core:mappers&#45;&gt;:core:domain -->
<g id="edge76" class="edge">
<title>:core:mappers-&gt;:core:domain</title>
<path fill="none" stroke="black" d="M275.48,-145.21C306.58,-126.88 359.9,-96.07 407,-72 430.11,-60.19 456.36,-48 477.94,-38.3"/>
<polygon fill="black" stroke="black" points="479.36,-41.5 487.06,-34.22 476.5,-35.1 479.36,-41.5"/>
</g>
<!-- :core:mappers&#45;&gt;:core:network -->
<g id="edge77" class="edge">
<title>:core:mappers-&gt;:core:network</title>
<path fill="none" stroke="red" stroke-width="2" d="M295.16,-148.81C340.28,-136.89 409.07,-118.72 457.46,-105.94"/>
<polygon fill="red" stroke="red" stroke-width="2" points="456.67,-109.76 465.44,-103.83 454.88,-103 456.67,-109.76"/>
</g>
<!-- :core:database&#45;&gt;:core:domain -->
<g id="edge78" class="edge">
<title>:core:database-&gt;:core:domain</title>
<path fill="none" stroke="black" d="M663.85,-216.47C652.99,-206.75 640.01,-193.7 631,-180 602.59,-136.85 618.71,-113.55 588,-72 579.47,-60.46 567.84,-50.01 556.72,-41.5"/>
<polygon fill="black" stroke="black" points="558.94,-38.79 548.8,-35.72 554.82,-44.44 558.94,-38.79"/>
</g>
<!-- :core:database&#45;&gt;:core:common -->
<g id="edge79" class="edge">
<title>:core:database-&gt;:core:common</title>
<path fill="none" stroke="black" d="M734.27,-221.85C744.11,-219.8 754.36,-217.75 764,-216 860.24,-198.48 972.14,-182.21 1042.76,-172.43"/>
<polygon fill="black" stroke="black" points="1043.23,-175.9 1052.66,-171.07 1042.28,-168.97 1043.23,-175.9"/>
</g>
<!-- :core:database&#45;&gt;:core:utils -->
<g id="edge81" class="edge">
<title>:core:database-&gt;:core:utils</title>
<path fill="none" stroke="black" d="M725.77,-219.59C762.68,-207.73 816.46,-190.47 854.89,-178.13"/>
<polygon fill="black" stroke="black" points="855.9,-181.48 864.35,-175.09 853.76,-174.81 855.9,-181.48"/>
</g>
<!-- :core:database&#45;&gt;:core:coroutines -->
<g id="edge80" class="edge">
<title>:core:database-&gt;:core:coroutines</title>
<path fill="none" stroke="black" d="M683.6,-215.85C682.74,-179.14 680.72,-92.66 679.67,-47.53"/>
<polygon fill="black" stroke="black" points="683.17,-47.66 679.44,-37.75 676.17,-47.82 683.17,-47.66"/>
</g>
<!-- :core:movie&#45;&gt;:core:domain -->
<g id="edge83" class="edge">
<title>:core:movie-&gt;:core:domain</title>
<path fill="none" stroke="black" d="M259.32,-227.29C228.87,-220.99 193.12,-207.75 174,-180 164.92,-166.82 165.27,-157.41 174,-144 233.07,-53.33 365.24,-27.87 448.63,-21.05"/>
<polygon fill="black" stroke="black" points="448.83,-24.55 458.55,-20.32 448.32,-17.57 448.83,-24.55"/>
</g>
<!-- :core:movie&#45;&gt;:core:common -->
<g id="edge82" class="edge">
<title>:core:movie-&gt;:core:common</title>
<path fill="none" stroke="black" d="M361.54,-224.07C378.98,-221.13 398.82,-218.08 417,-216 657.73,-188.42 719.65,-201.47 961,-180 987.38,-177.65 1016.27,-174.56 1041.72,-171.65"/>
<polygon fill="black" stroke="black" points="1042.11,-175.13 1051.64,-170.5 1041.3,-168.17 1042.11,-175.13"/>
</g>
<!-- :core:movie&#45;&gt;:core:network -->
<g id="edge85" class="edge">
<title>:core:movie-&gt;:core:network</title>
<path fill="none" stroke="black" d="M335.28,-217.26C370.86,-192.13 440.67,-142.81 481.72,-113.81"/>
<polygon fill="black" stroke="black" points="483.62,-116.75 489.77,-108.12 479.58,-111.03 483.62,-116.75"/>
</g>
<!-- :core:movie&#45;&gt;:core:mappers -->
<g id="edge84" class="edge">
<title>:core:movie-&gt;:core:mappers</title>
<path fill="none" stroke="red" stroke-width="2" d="M297.83,-216.41C290.14,-207.99 280.62,-197.58 272.04,-188.2"/>
<polygon fill="red" stroke="red" stroke-width="2" points="275.88,-187.21 266.55,-182.19 270.71,-191.93 275.88,-187.21"/>
</g>
<!-- :core:favoritewatchlist&#45;&gt;:core:designsystem -->
<g id="edge93" class="edge">
<title>:core:favoritewatchlist-&gt;:core:designsystem</title>
<path fill="none" stroke="black" d="M274.3,-291.18C250.36,-283.09 223.92,-270.66 205,-252 169.44,-216.94 139.81,-180.4 174,-144 186.71,-130.46 706.79,-105.21 924.1,-95.22"/>
<polygon fill="black" stroke="black" points="924.13,-98.72 933.96,-94.77 923.81,-91.73 924.13,-98.72"/>
</g>
<!-- :core:favoritewatchlist&#45;&gt;:core:domain -->
<g id="edge87" class="edge">
<title>:core:favoritewatchlist-&gt;:core:domain</title>
<path fill="none" stroke="black" d="M248.92,-296.55C219.62,-289.27 189.29,-276.01 170,-252 119.12,-188.65 135.83,-119.16 202,-72 240.87,-44.29 368.59,-30.04 450.44,-23.57"/>
<polygon fill="black" stroke="black" points="450.45,-27.08 460.16,-22.83 449.92,-20.1 450.45,-27.08"/>
</g>
<!-- :core:favoritewatchlist&#45;&gt;:core:uihelper -->
<g id="edge88" class="edge">
<title>:core:favoritewatchlist-&gt;:core:uihelper</title>
<path fill="none" stroke="black" d="M412.34,-295.18C433.65,-292.68 456.69,-290.11 478,-288 675.46,-268.44 725.3,-268.94 923,-252 961.45,-248.71 1004.31,-244.85 1039.38,-241.64"/>
<polygon fill="black" stroke="black" points="1039.33,-245.16 1048.97,-240.76 1038.69,-238.19 1039.33,-245.16"/>
</g>
<!-- :core:favoritewatchlist&#45;&gt;:core:user -->
<g id="edge91" class="edge">
<title>:core:favoritewatchlist-&gt;:core:user</title>
<path fill="none" stroke="black" d="M365.93,-288.76C387.01,-278.37 414.44,-264.85 436.52,-253.97"/>
<polygon fill="black" stroke="black" points="437.78,-257.25 445.21,-249.69 434.69,-250.97 437.78,-257.25"/>
</g>
<!-- :core:favoritewatchlist&#45;&gt;:navigation -->
<g id="edge94" class="edge">
<title>:core:favoritewatchlist-&gt;:navigation</title>
<path fill="none" stroke="black" d="M413.24,-295.44C517.59,-282.92 694.2,-261.48 759,-252 772.88,-249.97 787.8,-247.57 801.8,-245.23"/>
<polygon fill="black" stroke="black" points="802.02,-248.75 811.3,-243.63 800.86,-241.84 802.02,-248.75"/>
</g>
<!-- :core:favoritewatchlist&#45;&gt;:core:utils -->
<g id="edge92" class="edge">
<title>:core:favoritewatchlist-&gt;:core:utils</title>
<path fill="none" stroke="black" d="M347.83,-288.07C369.54,-263.47 408.34,-220.31 417,-216 490.05,-179.67 727.78,-168 840.99,-164.46"/>
<polygon fill="black" stroke="black" points="840.8,-167.96 850.69,-164.16 840.59,-160.97 840.8,-167.96"/>
</g>
<!-- :core:favoritewatchlist&#45;&gt;:core:mappers -->
<g id="edge89" class="edge">
<title>:core:favoritewatchlist-&gt;:core:mappers</title>
<path fill="none" stroke="black" d="M270.2,-291.88C248.64,-284.05 226.75,-271.63 214,-252 201.22,-232.32 213.22,-207.23 226.54,-188.72"/>
<polygon fill="black" stroke="black" points="229.24,-190.95 232.57,-180.89 223.7,-186.67 229.24,-190.95"/>
</g>
<!-- :core:favoritewatchlist&#45;&gt;:core:database -->
<g id="edge86" class="edge">
<title>:core:favoritewatchlist-&gt;:core:database</title>
<path fill="none" stroke="black" d="M397.79,-292.08C461.32,-279.41 557.58,-260.21 620.62,-247.64"/>
<polygon fill="black" stroke="black" points="621,-251.13 630.12,-245.75 619.63,-244.27 621,-251.13"/>
</g>
<!-- :core:favoritewatchlist&#45;&gt;:core:movie -->
<g id="edge90" class="edge">
<title>:core:favoritewatchlist-&gt;:core:movie</title>
<path fill="none" stroke="red" stroke-width="2" d="M328.06,-287.7C325.92,-280.24 323.38,-271.32 320.99,-262.97"/>
<polygon fill="red" stroke="red" stroke-width="2" points="324.83,-263.67 318.72,-255.01 318.1,-265.59 324.83,-263.67"/>
</g>
</g>
</svg>