<svg xmlns="http://www.w3.org/2000/svg" xmlns:xlink="http://www.w3.org/1999/xlink" width="1690pt" height="476pt" viewBox="0.00 0.00 1690.25 476.00">
<g id="graph0" class="graph" transform="scale(1 1) rotate(0) translate(4 472)">
<title>G</title>
<polygon fill="white" stroke="none" points="-4,4 -4,-472 1686.25,-472 1686.25,4 -4,4"/>
<!-- :app -->
<g id="node1" class="node">
<title>:app</title>
<ellipse fill="none" stroke="black" cx="907.25" cy="-450" rx="27.66" ry="18"/>
<text text-anchor="middle" x="907.25" y="-445.8" font-family="Times,serif" font-size="14.00">:app</text>
</g>
<!-- :core:designsystem -->
<g id="node2" class="node">
<title>:core:designsystem</title>
<ellipse fill="none" stroke="black" cx="762.25" cy="-162" rx="85.06" ry="18"/>
<text text-anchor="middle" x="762.25" y="-157.8" font-family="Times,serif" font-size="14.00">:core:designsystem</text>
</g>
<!-- :app&#45;&gt;:core:designsystem -->
<g id="edge1" class="edge">
<title>:app-&gt;:core:designsystem</title>
<path fill="none" stroke="black" d="M879.49,-448.55C751.93,-446.31 225.73,-434.73 164.25,-396 102.48,-357.09 102.8,-322.86 85.25,-252 81.4,-236.47 74.31,-227.68 85.25,-216 126.72,-171.7 569.85,-185.88 630.25,-180 646.94,-178.38 664.79,-176.3 681.78,-174.17"/>
<polygon fill="black" stroke="black" points="681.83,-177.69 691.31,-172.96 680.94,-170.75 681.83,-177.69"/>
</g>
<!-- :core:domain -->
<g id="node3" class="node">
<title>:core:domain</title>
<ellipse fill="none" stroke="black" cx="620.25" cy="-18" rx="61.99" ry="18"/>
<text text-anchor="middle" x="620.25" y="-13.8" font-family="Times,serif" font-size="14.00">:core:domain</text>
</g>
<!-- :app&#45;&gt;:core:domain -->
<g id="edge2" class="edge">
<title>:app-&gt;:core:domain</title>
<path fill="none" stroke="black" d="M934.83,-446.93C1072.89,-436.24 1682.25,-384.63 1682.25,-307 1682.25,-307 1682.25,-307 1682.25,-161 1682.25,-61.03 933.32,-28.82 693.31,-21.07"/>
<polygon fill="black" stroke="black" points="693.56,-17.57 683.45,-20.76 693.33,-24.57 693.56,-17.57"/>
</g>
<!-- :core:uihelper -->
<g id="node4" class="node">
<title>:core:uihelper</title>
<ellipse fill="none" stroke="black" cx="893.25" cy="-234" rx="64.66" ry="18"/>
<text text-anchor="middle" x="893.25" y="-229.8" font-family="Times,serif" font-size="14.00">:core:uihelper</text>
</g>
<!-- :app&#45;&gt;:core:uihelper -->
<g id="edge3" class="edge">
<title>:app-&gt;:core:uihelper</title>
<path fill="none" stroke="black" d="M906.13,-431.85C903.73,-395.14 898.07,-308.66 895.12,-263.53"/>
<polygon fill="black" stroke="black" points="898.62,-263.49 894.47,-253.74 891.64,-263.95 898.62,-263.49"/>
</g>
<!-- :core:user -->
<g id="node5" class="node">
<title>:core:user</title>
<ellipse fill="none" stroke="black" cx="175.25" cy="-234" rx="49.11" ry="18"/>
<text text-anchor="middle" x="175.25" y="-229.8" font-family="Times,serif" font-size="14.00">:core:user</text>
</g>
<!-- :app&#45;&gt;:core:user -->
<g id="edge4" class="edge">
<title>:app-&gt;:core:user</title>
<path fill="none" stroke="black" d="M879.31,-449.2C794.19,-449.24 531.02,-445.08 320.25,-396 233.51,-375.8 183.65,-397.42 133.25,-324 119.37,-303.79 134.25,-278.26 150.01,-259.74"/>
<polygon fill="black" stroke="black" points="152.55,-262.14 156.68,-252.38 147.37,-257.44 152.55,-262.14"/>
</g>
<!-- :feature:about -->
<g id="node6" class="node">
<title>:feature:about</title>
<ellipse fill="none" stroke="black" cx="1081.25" cy="-306" rx="64.66" ry="18"/>
<text text-anchor="middle" x="1081.25" y="-301.8" font-family="Times,serif" font-size="14.00">:feature:about</text>
</g>
<!-- :app&#45;&gt;:feature:about -->
<g id="edge5" class="edge">
<title>:app-&gt;:feature:about</title>
<path fill="none" stroke="black" d="M929.68,-439.14C949.8,-429.7 979.58,-414.22 1002.25,-396 1025.26,-377.51 1047.19,-351.94 1062.08,-332.95"/>
<polygon fill="black" stroke="black" points="1064.75,-335.22 1068.07,-325.16 1059.2,-330.95 1064.75,-335.22"/>
</g>
<!-- :feature:detail -->
<g id="node7" class="node">
<title>:feature:detail</title>
<ellipse fill="none" stroke="black" cx="385.25" cy="-306" rx="64.65" ry="18"/>
<text text-anchor="middle" x="385.25" y="-301.8" font-family="Times,serif" font-size="14.00">:feature:detail</text>
</g>
<!-- :app&#45;&gt;:feature:detail -->
<g id="edge6" class="edge">
<title>:app-&gt;:feature:detail</title>
<path fill="none" stroke="black" d="M879.51,-447.69C797.15,-443.45 555.36,-428.48 484.25,-396 452.57,-381.53 423.88,-353.25 405.64,-332.44"/>
<polygon fill="black" stroke="black" points="408.38,-330.26 399.23,-324.91 403.05,-334.8 408.38,-330.26"/>
</g>
<!-- :feature:favorite -->
<g id="node8" class="node">
<title>:feature:favorite</title>
<ellipse fill="none" stroke="black" cx="759.25" cy="-378" rx="73.23" ry="18"/>
<text text-anchor="middle" x="759.25" y="-373.8" font-family="Times,serif" font-size="14.00">:feature:favorite</text>
</g>
<!-- :app&#45;&gt;:feature:favorite -->
<g id="edge7" class="edge">
<title>:app-&gt;:feature:favorite</title>
<path fill="none" stroke="red" stroke-width="2" d="M885.41,-438.67C863.59,-428.35 829.47,-412.21 802.21,-399.32"/>
<polygon fill="red" stroke="red" stroke-width="2" points="805.41,-396.96 794.87,-395.85 802.41,-403.29 805.41,-396.96"/>
</g>
<!-- :feature:home -->
<g id="node9" class="node">
<title>:feature:home</title>
<ellipse fill="none" stroke="black" cx="207.25" cy="-306" rx="64.66" ry="18"/>
<text text-anchor="middle" x="207.25" y="-301.8" font-family="Times,serif" font-size="14.00">:feature:home</text>
</g>
<!-- :app&#45;&gt;:feature:home -->
<g id="edge8" class="edge">
<title>:app-&gt;:feature:home</title>
<path fill="none" stroke="black" d="M879.36,-448.51C805.17,-446.64 597.16,-437.77 430.25,-396 364.31,-379.5 291.9,-347.91 248.01,-327.15"/>
<polygon fill="black" stroke="black" points="249.66,-324.06 239.13,-322.9 246.64,-330.37 249.66,-324.06"/>
</g>
<!-- :feature:login -->
<g id="node10" class="node">
<title>:feature:login</title>
<ellipse fill="none" stroke="black" cx="1227.25" cy="-306" rx="63.06" ry="18"/>
<text text-anchor="middle" x="1227.25" y="-301.8" font-family="Times,serif" font-size="14.00">:feature:login</text>
</g>
<!-- :app&#45;&gt;:feature:login -->
<g id="edge9" class="edge">
<title>:app-&gt;:feature:login</title>
<path fill="none" stroke="black" d="M930.3,-439.68C955.83,-429.28 998.15,-411.85 1034.25,-396 1086.82,-372.92 1146.78,-345.02 1185.73,-326.68"/>
<polygon fill="black" stroke="black" points="1186.73,-330.08 1194.28,-322.65 1183.74,-323.75 1186.73,-330.08"/>
</g>
<!-- :feature:more -->
<g id="node11" class="node">
<title>:feature:more</title>
<ellipse fill="none" stroke="black" cx="783.25" cy="-306" rx="63.05" ry="18"/>
<text text-anchor="middle" x="783.25" y="-301.8" font-family="Times,serif" font-size="14.00">:feature:more</text>
</g>
<!-- :app&#45;&gt;:feature:more -->
<g id="edge10" class="edge">
<title>:app-&gt;:feature:more</title>
<path fill="none" stroke="black" d="M896.67,-432.86C884.3,-414.46 862.77,-383.85 841.25,-360 832.22,-350 821.53,-339.83 811.8,-331.1"/>
<polygon fill="black" stroke="black" points="814.16,-328.52 804.34,-324.54 809.54,-333.78 814.16,-328.52"/>
</g>
<!-- :feature:person -->
<g id="node12" class="node">
<title>:feature:person</title>
<ellipse fill="none" stroke="black" cx="1377.25" cy="-306" rx="68.95" ry="18"/>
<text text-anchor="middle" x="1377.25" y="-301.8" font-family="Times,serif" font-size="14.00">:feature:person</text>
</g>
<!-- :app&#45;&gt;:feature:person -->
<g id="edge11" class="edge">
<title>:app-&gt;:feature:person</title>
<path fill="none" stroke="black" d="M932.17,-441.82C967.1,-431.73 1032.59,-412.72 1088.25,-396 1170.44,-371.31 1265.5,-341.87 1323.48,-323.8"/>
<polygon fill="black" stroke="black" points="1324.27,-327.22 1332.77,-320.91 1322.18,-320.54 1324.27,-327.22"/>
</g>
<!-- :feature:search -->
<g id="node13" class="node">
<title>:feature:search</title>
<ellipse fill="none" stroke="black" cx="1532.25" cy="-306" rx="67.87" ry="18"/>
<text text-anchor="middle" x="1532.25" y="-301.8" font-family="Times,serif" font-size="14.00">:feature:search</text>
</g>
<!-- :app&#45;&gt;:feature:search -->
<g id="edge12" class="edge">
<title>:app-&gt;:feature:search</title>
<path fill="none" stroke="black" d="M933.68,-443.65C979.48,-434.33 1076.55,-414.34 1158.25,-396 1269.59,-371 1399.03,-339.7 1472.73,-321.66"/>
<polygon fill="black" stroke="black" points="1473.28,-325.13 1482.16,-319.35 1471.61,-318.33 1473.28,-325.13"/>
</g>
<!-- :feature:watchlist -->
<g id="node14" class="node">
<title>:feature:watchlist</title>
<ellipse fill="none" stroke="black" cx="571.25" cy="-378" rx="78.07" ry="18"/>
<text text-anchor="middle" x="571.25" y="-373.8" font-family="Times,serif" font-size="14.00">:feature:watchlist</text>
</g>
<!-- :app&#45;&gt;:feature:watchlist -->
<g id="edge13" class="edge">
<title>:app-&gt;:feature:watchlist</title>
<path fill="none" stroke="black" d="M880.88,-443.51C829.23,-432.75 713.29,-408.59 638.86,-393.08"/>
<polygon fill="black" stroke="black" points="639.72,-389.69 629.22,-391.08 638.29,-396.54 639.72,-389.69"/>
</g>
<!-- :navigation -->
<g id="node15" class="node">
<title>:navigation</title>
<ellipse fill="none" stroke="black" cx="1030.25" cy="-234" rx="54.48" ry="18"/>
<text text-anchor="middle" x="1030.25" y="-229.8" font-family="Times,serif" font-size="14.00">:navigation</text>
</g>
<!-- :app&#45;&gt;:navigation -->
<g id="edge14" class="edge">
<title>:app-&gt;:navigation</title>
<path fill="none" stroke="black" d="M916.49,-432.92C937.44,-396.47 988.71,-307.27 1014.66,-262.12"/>
<polygon fill="black" stroke="black" points="1017.68,-263.89 1019.63,-253.47 1011.61,-260.4 1017.68,-263.89"/>
</g>
<!-- :core:uihelper&#45;&gt;:core:designsystem -->
<g id="edge16" class="edge">
<title>:core:uihelper-&gt;:core:designsystem</title>
<path fill="none" stroke="black" d="M864.18,-217.46C846.07,-207.79 822.53,-195.21 802.63,-184.58"/>
<polygon fill="black" stroke="black" points="804.41,-181.56 793.94,-179.93 801.11,-187.73 804.41,-181.56"/>
</g>
<!-- :core:common -->
<g id="node16" class="node">
<title>:core:common</title>
<ellipse fill="none" stroke="black" cx="932.25" cy="-162" rx="66.81" ry="18"/>
<text text-anchor="middle" x="932.25" y="-157.8" font-family="Times,serif" font-size="14.00">:core:common</text>
</g>
<!-- :core:uihelper&#45;&gt;:core:common -->
<g id="edge15" class="edge">
<title>:core:uihelper-&gt;:core:common</title>
<path fill="none" stroke="black" d="M902.69,-216.05C907.03,-208.26 912.29,-198.82 917.16,-190.08"/>
<polygon fill="black" stroke="black" points="920.08,-192.04 921.89,-181.6 913.96,-188.63 920.08,-192.04"/>
</g>
<!-- :core:user&#45;&gt;:core:domain -->
<g id="edge17" class="edge">
<title>:core:user-&gt;:core:domain</title>
<path fill="none" stroke="black" d="M144.02,-219.68C127.8,-210.96 109.49,-197.84 100.25,-180 92.89,-165.79 92.17,-157.81 100.25,-144 133.2,-87.66 166.36,-92.74 228.25,-72 335.46,-36.07 466.92,-24.43 547.09,-20.7"/>
<polygon fill="black" stroke="black" points="547.18,-24.2 557.02,-20.27 546.88,-17.21 547.18,-24.2"/>
</g>
<!-- :core:user&#45;&gt;:core:common -->
<g id="edge19" class="edge">
<title>:core:user-&gt;:core:common</title>
<path fill="none" stroke="black" d="M210.84,-221.19C218.18,-219.14 225.91,-217.27 233.25,-216 506.53,-168.69 581.57,-218.4 856.25,-180 861.88,-179.21 867.71,-178.23 873.52,-177.13"/>
<polygon fill="black" stroke="black" points="874.03,-180.59 883.14,-175.19 872.65,-173.73 874.03,-180.59"/>
</g>
<!-- :core:network -->
<g id="node17" class="node">
<title>:core:network</title>
<ellipse fill="none" stroke="black" cx="362.25" cy="-90" rx="64.66" ry="18"/>
<text text-anchor="middle" x="362.25" y="-85.8" font-family="Times,serif" font-size="14.00">:core:network</text>
</g>
<!-- :core:user&#45;&gt;:core:network -->
<g id="edge18" class="edge">
<title>:core:user-&gt;:core:network</title>
<path fill="none" stroke="black" d="M197.8,-217.56C212.82,-207.15 232.9,-193.01 250.25,-180 279.07,-158.39 311.18,-132.71 333.6,-114.5"/>
<polygon fill="black" stroke="black" points="335.57,-117.41 341.11,-108.38 331.14,-111.98 335.57,-117.41"/>
</g>
<!-- :core:mappers -->
<g id="node18" class="node">
<title>:core:mappers</title>
<ellipse fill="none" stroke="black" cx="175.25" cy="-162" rx="65.73" ry="18"/>
<text text-anchor="middle" x="175.25" y="-157.8" font-family="Times,serif" font-size="14.00">:core:mappers</text>
</g>
<!-- :core:user&#45;&gt;:core:mappers -->
<g id="edge20" class="edge">
<title>:core:user-&gt;:core:mappers</title>
<path fill="none" stroke="black" d="M175.25,-215.7C175.25,-208.41 175.25,-199.73 175.25,-191.54"/>
<polygon fill="black" stroke="black" points="178.75,-191.62 175.25,-181.62 171.75,-191.62 178.75,-191.62"/>
</g>
<!-- :feature:about&#45;&gt;:core:designsystem -->
<g id="edge21" class="edge">
<title>:feature:about-&gt;:core:designsystem</title>
<path fill="none" stroke="black" d="M1090.58,-287.72C1099.82,-267.99 1110.32,-235.86 1093.25,-216 1058.52,-175.6 908.8,-188.74 856.25,-180 849.59,-178.89 842.68,-177.71 835.75,-176.5"/>
<polygon fill="black" stroke="black" points="836.85,-173.14 826.39,-174.85 835.63,-180.03 836.85,-173.14"/>
</g>
<!-- :feature:about&#45;&gt;:core:uihelper -->
<g id="edge24" class="edge">
<title>:feature:about-&gt;:core:uihelper</title>
<path fill="none" stroke="black" d="M1043.66,-291C1014.2,-280.03 973.01,-264.7 941.18,-252.85"/>
<polygon fill="black" stroke="black" points="942.79,-249.71 932.19,-249.5 940.34,-256.27 942.79,-249.71"/>
</g>
<!-- :feature:about&#45;&gt;:navigation -->
<g id="edge22" class="edge">
<title>:feature:about-&gt;:navigation</title>
<path fill="none" stroke="black" d="M1068.9,-288.05C1062.95,-279.89 1055.68,-269.91 1049.06,-260.82"/>
<polygon fill="black" stroke="black" points="1052.09,-259.03 1043.37,-253.01 1046.43,-263.16 1052.09,-259.03"/>
</g>
<!-- :feature:about&#45;&gt;:core:common -->
<g id="edge23" class="edge">
<title>:feature:about-&gt;:core:common</title>
<path fill="none" stroke="black" d="M1100.15,-288.54C1119.3,-269.85 1143.79,-238.98 1126.25,-216 1110.92,-195.92 1050.92,-181.6 1001.65,-172.95"/>
<polygon fill="black" stroke="black" points="1002.3,-169.51 991.86,-171.29 1001.13,-176.41 1002.3,-169.51"/>
</g>
<!-- :feature:detail&#45;&gt;:core:designsystem -->
<g id="edge25" class="edge">
<title>:feature:detail-&gt;:core:designsystem</title>
<path fill="none" stroke="black" d="M429.15,-292.42C463.28,-282.34 511.65,-267.38 553.25,-252 610.76,-230.74 675.5,-202.48 717.48,-183.56"/>
<polygon fill="black" stroke="black" points="718.85,-186.78 726.52,-179.47 715.97,-180.4 718.85,-186.78"/>
</g>
<!-- :feature:detail&#45;&gt;:core:uihelper -->
<g id="edge30" class="edge">
<title>:feature:detail-&gt;:core:uihelper</title>
<path fill="none" stroke="black" d="M432.47,-293.38C441.34,-291.42 450.55,-289.53 459.25,-288 585.72,-265.81 734.54,-249.81 820.96,-241.5"/>
<polygon fill="black" stroke="black" points="821.09,-245 830.71,-240.57 820.42,-238.04 821.09,-245"/>
</g>
<!-- :feature:detail&#45;&gt;:core:user -->
<g id="edge29" class="edge">
<title>:feature:detail-&gt;:core:user</title>
<path fill="none" stroke="black" d="M345.25,-291.67C309.84,-279.86 258.15,-262.63 221.08,-250.28"/>
<polygon fill="black" stroke="black" points="222.58,-247.09 211.99,-247.25 220.37,-253.73 222.58,-247.09"/>
</g>
<!-- :feature:detail&#45;&gt;:navigation -->
<g id="edge26" class="edge">
<title>:feature:detail-&gt;:navigation</title>
<path fill="none" stroke="black" d="M431.62,-293.19C440.73,-291.2 450.25,-289.34 459.25,-288 683.11,-254.56 744.06,-289.66 967.25,-252 971.34,-251.31 975.56,-250.47 979.77,-249.53"/>
<polygon fill="black" stroke="black" points="980.47,-252.96 989.38,-247.23 978.84,-246.16 980.47,-252.96"/>
</g>
<!-- :core:database -->
<g id="node19" class="node">
<title>:core:database</title>
<ellipse fill="none" stroke="black" cx="478.25" cy="-234" rx="66.26" ry="18"/>
<text text-anchor="middle" x="478.25" y="-229.8" font-family="Times,serif" font-size="14.00">:core:database</text>
</g>
<!-- :feature:detail&#45;&gt;:core:database -->
<g id="edge27" class="edge">
<title>:feature:detail-&gt;:core:database</title>
<path fill="none" stroke="black" d="M406.82,-288.76C418.94,-279.64 434.27,-268.1 447.61,-258.06"/>
<polygon fill="black" stroke="black" points="449.38,-261.11 455.26,-252.3 445.17,-255.52 449.38,-261.11"/>
</g>
<!-- :core:movie -->
<g id="node20" class="node">
<title>:core:movie</title>
<ellipse fill="none" stroke="black" cx="299.25" cy="-234" rx="57.16" ry="18"/>
<text text-anchor="middle" x="299.25" y="-229.8" font-family="Times,serif" font-size="14.00">:core:movie</text>
</g>
<!-- :feature:detail&#45;&gt;:core:movie -->
<g id="edge28" class="edge">
<title>:feature:detail-&gt;:core:movie</title>
<path fill="none" stroke="black" d="M365.3,-288.76C354.12,-279.66 339.99,-268.16 327.67,-258.13"/>
<polygon fill="black" stroke="black" points="330.23,-255.7 320.26,-252.1 325.81,-261.13 330.23,-255.7"/>
</g>
<!-- :core:utils -->
<g id="node21" class="node">
<title>:core:utils</title>
<ellipse fill="none" stroke="black" cx="571.25" cy="-162" rx="49.65" ry="18"/>
<text text-anchor="middle" x="571.25" y="-157.8" font-family="Times,serif" font-size="14.00">:core:utils</text>
</g>
<!-- :feature:detail&#45;&gt;:core:utils -->
<g id="edge31" class="edge">
<title>:feature:detail-&gt;:core:utils</title>
<path fill="none" stroke="black" d="M383.89,-287.66C383.32,-267.87 385.54,-235.69 403.25,-216 418.64,-198.88 474.03,-183.57 517.05,-173.86"/>
<polygon fill="black" stroke="black" points="517.76,-177.28 526.77,-171.72 516.25,-170.45 517.76,-177.28"/>
</g>
<!-- :feature:favorite&#45;&gt;:core:designsystem -->
<g id="edge32" class="edge">
<title>:feature:favorite-&gt;:core:designsystem</title>
<path fill="none" stroke="black" d="M738.29,-360.48C728.04,-351.04 716.74,-338.25 711.25,-324 705.49,-309.07 707.4,-303.53 711.25,-288 715.6,-270.44 722.95,-268.55 730.25,-252 739.05,-232.04 747.34,-208.82 753.27,-191.1"/>
<polygon fill="black" stroke="black" points="756.54,-192.37 756.34,-181.78 749.89,-190.18 756.54,-192.37"/>
</g>
<!-- :feature:favorite&#45;&gt;:navigation -->
<g id="edge33" class="edge">
<title>:feature:favorite-&gt;:navigation</title>
<path fill="none" stroke="black" d="M799.27,-362.58C825.15,-352.76 859.29,-338.89 888.25,-324 927.6,-303.77 970.31,-276.17 998.5,-257.09"/>
<polygon fill="black" stroke="black" points="1000.29,-260.11 1006.58,-251.58 996.35,-254.32 1000.29,-260.11"/>
</g>
<!-- :core:favoritewatchlist -->
<g id="node22" class="node">
<title>:core:favoritewatchlist</title>
<ellipse fill="none" stroke="black" cx="566.25" cy="-306" rx="97.91" ry="18"/>
<text text-anchor="middle" x="566.25" y="-301.8" font-family="Times,serif" font-size="14.00">:core:favoritewatchlist</text>
</g>
<!-- :feature:favorite&#45;&gt;:core:favoritewatchlist -->
<g id="edge34" class="edge">
<title>:feature:favorite-&gt;:core:favoritewatchlist</title>
<path fill="none" stroke="red" stroke-width="2" d="M719.26,-362.5C690.52,-352.07 651.45,-337.9 619.99,-326.49"/>
<polygon fill="red" stroke="red" stroke-width="2" points="622.64,-323.73 612.05,-323.61 620.26,-330.31 622.64,-323.73"/>
</g>
<!-- :feature:home&#45;&gt;:core:designsystem -->
<g id="edge35" class="edge">
<title>:feature:home-&gt;:core:designsystem</title>
<path fill="none" stroke="black" d="M166.71,-291.81C148.16,-283.5 127.96,-270.73 117.25,-252 109.31,-238.11 106.34,-227.7 117.25,-216 156.21,-174.21 573.39,-185.65 630.25,-180 646.94,-178.34 664.78,-176.26 681.78,-174.12"/>
<polygon fill="black" stroke="black" points="681.82,-177.64 691.3,-172.9 680.94,-170.7 681.82,-177.64"/>
</g>
<!-- :feature:home&#45;&gt;:core:uihelper -->
<g id="edge38" class="edge">
<title>:feature:home-&gt;:core:uihelper</title>
<path fill="none" stroke="black" d="M260.85,-295.49C277.01,-292.82 294.82,-290.09 311.25,-288 493.52,-264.83 709.15,-247.92 819.73,-240.01"/>
<polygon fill="black" stroke="black" points="819.84,-243.51 829.56,-239.31 819.34,-236.53 819.84,-243.51"/>
</g>
<!-- :feature:home&#45;&gt;:core:user -->
<g id="edge41" class="edge">
<title>:feature:home-&gt;:core:user</title>
<path fill="none" stroke="black" d="M199.34,-287.7C195.85,-280.07 191.67,-270.92 187.77,-262.4"/>
<polygon fill="black" stroke="black" points="191.04,-261.12 183.7,-253.48 184.67,-264.03 191.04,-261.12"/>
</g>
<!-- :feature:home&#45;&gt;:navigation -->
<g id="edge36" class="edge">
<title>:feature:home-&gt;:navigation</title>
<path fill="none" stroke="black" d="M260.01,-295.25C276.38,-292.53 294.52,-289.82 311.25,-288 601.53,-256.4 678.95,-298.29 967.25,-252 971.53,-251.31 975.94,-250.45 980.34,-249.48"/>
<polygon fill="black" stroke="black" points="980.82,-252.97 989.73,-247.24 979.19,-246.16 980.82,-252.97"/>
</g>
<!-- :feature:home&#45;&gt;:core:common -->
<g id="edge37" class="edge">
<title>:feature:home-&gt;:core:common</title>
<path fill="none" stroke="black" d="M261.74,-295.94C277.69,-293.33 295.16,-290.51 311.25,-288 418.69,-271.23 446.45,-272.45 553.25,-252 668.01,-230.03 800.61,-197.15 874.62,-178.11"/>
<polygon fill="black" stroke="black" points="875.27,-181.55 884.08,-175.67 873.52,-174.78 875.27,-181.55"/>
</g>
<!-- :feature:home&#45;&gt;:core:mappers -->
<g id="edge40" class="edge">
<title>:feature:home-&gt;:core:mappers</title>
<path fill="none" stroke="black" d="M149.66,-297.49C97.23,-289.34 25.46,-274.4 8.25,-252 -23.54,-210.64 48.34,-186.35 107.52,-173.87"/>
<polygon fill="black" stroke="black" points="108.18,-177.3 117.29,-171.9 106.79,-170.44 108.18,-177.3"/>
</g>
<!-- :feature:home&#45;&gt;:core:utils -->
<g id="edge39" class="edge">
<title>:feature:home-&gt;:core:utils</title>
<path fill="none" stroke="black" d="M153.29,-295.85C127.8,-288.52 99.65,-275.41 84.25,-252 75.45,-238.63 73.56,-227.91 84.25,-216 112.27,-184.77 386.47,-170.19 510.67,-165.15"/>
<polygon fill="black" stroke="black" points="510.48,-168.66 520.34,-164.77 510.21,-161.67 510.48,-168.66"/>
</g>
<!-- :feature:login&#45;&gt;:core:designsystem -->
<g id="edge42" class="edge">
<title>:feature:login-&gt;:core:designsystem</title>
<path fill="none" stroke="black" d="M1211.51,-288.35C1190.86,-267.65 1152.49,-232.97 1112.25,-216 1006.38,-171.34 969.69,-198.23 856.25,-180 849.53,-178.92 842.56,-177.75 835.57,-176.55"/>
<polygon fill="black" stroke="black" points="836.58,-173.17 826.13,-174.9 835.37,-180.07 836.58,-173.17"/>
</g>
<!-- :feature:login&#45;&gt;:core:domain -->
<g id="edge45" class="edge">
<title>:feature:login-&gt;:core:domain</title>
<path fill="none" stroke="black" d="M1220.8,-287.62C1213.01,-268.37 1198.38,-237.26 1178.25,-216 1095.05,-128.17 1060.51,-114.51 947.25,-72 863.39,-40.53 760.54,-27.73 692.84,-22.54"/>
<polygon fill="black" stroke="black" points="693.19,-19.05 682.97,-21.82 692.69,-26.04 693.19,-19.05"/>
</g>
<!-- :feature:login&#45;&gt;:core:uihelper -->
<g id="edge46" class="edge">
<title>:feature:login-&gt;:core:uihelper</title>
<path fill="none" stroke="black" d="M1180.45,-293.64C1172.07,-291.7 1163.41,-289.74 1155.25,-288 1072.05,-270.22 1050.5,-269.53 967.25,-252 962.4,-250.98 957.38,-249.89 952.35,-248.78"/>
<polygon fill="black" stroke="black" points="953.36,-245.42 942.83,-246.65 951.83,-252.25 953.36,-245.42"/>
</g>
<!-- :feature:login&#45;&gt;:core:user -->
<g id="edge47" class="edge">
<title>:feature:login-&gt;:core:user</title>
<path fill="none" stroke="black" d="M1182.56,-293.04C1173.58,-291.04 1164.16,-289.21 1155.25,-288 748.91,-232.62 637.96,-318.17 233.25,-252 229.4,-251.37 225.45,-250.57 221.51,-249.65"/>
<polygon fill="black" stroke="black" points="222.53,-246.3 211.98,-247.21 220.79,-253.08 222.53,-246.3"/>
</g>
<!-- :feature:login&#45;&gt;:navigation -->
<g id="edge43" class="edge">
<title>:feature:login-&gt;:navigation</title>
<path fill="none" stroke="black" d="M1188.8,-291.34C1156.77,-279.96 1111.04,-263.71 1076.92,-251.58"/>
<polygon fill="black" stroke="black" points="1078.3,-248.36 1067.7,-248.31 1075.96,-254.96 1078.3,-248.36"/>
</g>
<!-- :feature:login&#45;&gt;:core:common -->
<g id="edge44" class="edge">
<title>:feature:login-&gt;:core:common</title>
<path fill="none" stroke="black" d="M1215.98,-288.16C1201.54,-267.91 1174.59,-234.37 1143.25,-216 1101.07,-191.28 1047.61,-178.01 1005.05,-170.93"/>
<polygon fill="black" stroke="black" points="1005.84,-167.51 995.41,-169.41 1004.75,-174.42 1005.84,-167.51"/>
</g>
<!-- :feature:more&#45;&gt;:core:designsystem -->
<g id="edge48" class="edge">
<title>:feature:more-&gt;:core:designsystem</title>
<path fill="none" stroke="black" d="M782.81,-287.83C782.14,-269.82 780.46,-240.75 776.25,-216 774.86,-207.81 772.78,-199.03 770.66,-191.03"/>
<polygon fill="black" stroke="black" points="774.05,-190.16 767.99,-181.47 767.31,-192.05 774.05,-190.16"/>
</g>
<!-- :feature:more&#45;&gt;:core:uihelper -->
<g id="edge50" class="edge">
<title>:feature:more-&gt;:core:uihelper</title>
<path fill="none" stroke="black" d="M808.21,-289.12C823.26,-279.54 842.63,-267.21 859.09,-256.74"/>
<polygon fill="black" stroke="black" points="860.55,-259.96 867.11,-251.63 856.79,-254.05 860.55,-259.96"/>
</g>
<!-- :feature:more&#45;&gt;:core:user -->
<g id="edge52" class="edge">
<title>:feature:more-&gt;:core:user</title>
<path fill="none" stroke="black" d="M729.92,-295.97C711.96,-293.14 691.77,-290.19 673.25,-288 478.39,-265 426.17,-287.78 233.25,-252 229.47,-251.3 225.59,-250.45 221.71,-249.51"/>
<polygon fill="black" stroke="black" points="222.89,-246.2 212.33,-247.06 221.11,-252.98 222.89,-246.2"/>
</g>
<!-- :feature:more&#45;&gt;:navigation -->
<g id="edge49" class="edge">
<title>:feature:more-&gt;:navigation</title>
<path fill="none" stroke="black" d="M826.84,-292.65C869.35,-280.6 934.01,-262.27 978.98,-249.53"/>
<polygon fill="black" stroke="black" points="979.83,-252.93 988.5,-246.83 977.93,-246.19 979.83,-252.93"/>
</g>
<!-- :feature:more&#45;&gt;:core:database -->
<g id="edge51" class="edge">
<title>:feature:more-&gt;:core:database</title>
<path fill="none" stroke="black" d="M735.26,-293.99C682.18,-281.8 596.55,-262.15 538.87,-248.91"/>
<polygon fill="black" stroke="black" points="539.73,-245.52 529.21,-246.69 538.17,-252.34 539.73,-245.52"/>
</g>
<!-- :feature:person&#45;&gt;:core:designsystem -->
<g id="edge53" class="edge">
<title>:feature:person-&gt;:core:designsystem</title>
<path fill="none" stroke="black" d="M1346.14,-289.49C1303.98,-269.19 1225.85,-234.07 1155.25,-216 1025.58,-182.81 988.61,-199.92 856.25,-180 849.41,-178.97 842.31,-177.83 835.22,-176.63"/>
<polygon fill="black" stroke="black" points="836.04,-173.22 825.59,-174.98 834.86,-180.12 836.04,-173.22"/>
</g>
<!-- :feature:person&#45;&gt;:core:domain -->
<g id="edge56" class="edge">
<title>:feature:person-&gt;:core:domain</title>
<path fill="none" stroke="black" d="M1361.75,-288.15C1343.66,-269.1 1312.25,-237.9 1281.25,-216 1168.56,-136.4 1137.66,-114.01 1006.25,-72 900.62,-38.23 771.98,-25.98 693.12,-21.53"/>
<polygon fill="black" stroke="black" points="693.54,-18.05 683.37,-21.01 693.17,-25.04 693.54,-18.05"/>
</g>
<!-- :feature:person&#45;&gt;:core:uihelper -->
<g id="edge58" class="edge">
<title>:feature:person-&gt;:core:uihelper</title>
<path fill="none" stroke="black" d="M1327.05,-293.23C1317.83,-291.31 1308.28,-289.47 1299.25,-288 1152.75,-264.16 1113.61,-276.66 967.25,-252 962.08,-251.13 956.73,-250.12 951.38,-249.03"/>
<polygon fill="black" stroke="black" points="952.44,-245.68 941.94,-247.03 950.99,-252.53 952.44,-245.68"/>
</g>
<!-- :feature:person&#45;&gt;:navigation -->
<g id="edge54" class="edge">
<title>:feature:person-&gt;:navigation</title>
<path fill="none" stroke="black" d="M1326.09,-293.7C1317.15,-291.77 1307.93,-289.8 1299.25,-288 1226.37,-272.88 1142.15,-256.46 1087.64,-245.96"/>
<polygon fill="black" stroke="black" points="1088.44,-242.55 1077.96,-244.1 1087.12,-249.43 1088.44,-242.55"/>
</g>
<!-- :feature:person&#45;&gt;:core:common -->
<g id="edge55" class="edge">
<title>:feature:person-&gt;:core:common</title>
<path fill="none" stroke="black" d="M1347.68,-289.42C1309.48,-269.85 1240.47,-236.37 1178.25,-216 1119.31,-196.71 1050.11,-182.51 1000.13,-173.7"/>
<polygon fill="black" stroke="black" points="1000.76,-170.25 990.31,-171.99 999.57,-177.15 1000.76,-170.25"/>
</g>
<!-- :feature:person&#45;&gt;:core:network -->
<g id="edge57" class="edge">
<title>:feature:person-&gt;:core:network</title>
<path fill="none" stroke="black" d="M1355.32,-288.63C1328.42,-269.16 1280.89,-236.71 1236.25,-216 1139.86,-171.27 1112.52,-164.47 1008.25,-144 805,-104.1 560.07,-94.17 438.47,-91.75"/>
<polygon fill="black" stroke="black" points="438.66,-88.25 428.6,-91.57 438.53,-95.25 438.66,-88.25"/>
</g>
<!-- :feature:person&#45;&gt;:core:utils -->
<g id="edge59" class="edge">
<title>:feature:person-&gt;:core:utils</title>
<path fill="none" stroke="black" d="M1325.84,-293.61C1272.71,-281.59 1193.53,-262.91 1164.25,-252 1131.09,-239.65 1127.28,-225.67 1093.25,-216 910.9,-164.18 856.24,-204.39 668.25,-180 654.2,-178.18 639.09,-175.75 625.07,-173.31"/>
<polygon fill="black" stroke="black" points="626.05,-169.93 615.59,-171.62 624.82,-176.82 626.05,-169.93"/>
</g>
<!-- :feature:search&#45;&gt;:core:designsystem -->
<g id="edge60" class="edge">
<title>:feature:search-&gt;:core:designsystem</title>
<path fill="none" stroke="black" d="M1507.86,-288.89C1474.68,-267.92 1412.72,-232.05 1354.25,-216 1140.25,-157.26 1076.41,-207.79 856.25,-180 849.09,-179.1 841.65,-178.01 834.24,-176.83"/>
<polygon fill="black" stroke="black" points="834.96,-173.4 824.53,-175.22 833.82,-180.31 834.96,-173.4"/>
</g>
<!-- :feature:search&#45;&gt;:core:domain -->
<g id="edge63" class="edge">
<title>:feature:search-&gt;:core:domain</title>
<path fill="none" stroke="black" d="M1507.98,-288.76C1441.3,-245.07 1248.36,-124.76 1069.25,-72 940.67,-34.12 783.84,-23.2 693.67,-20.12"/>
<polygon fill="black" stroke="black" points="693.82,-16.62 683.71,-19.8 693.6,-23.62 693.82,-16.62"/>
</g>
<!-- :feature:search&#45;&gt;:core:uihelper -->
<g id="edge65" class="edge">
<title>:feature:search-&gt;:core:uihelper</title>
<path fill="none" stroke="black" d="M1483.56,-293.14C1474.21,-291.18 1464.46,-289.35 1455.25,-288 1240.07,-256.48 1182.29,-284.44 967.25,-252 961.99,-251.21 956.54,-250.24 951.11,-249.18"/>
<polygon fill="black" stroke="black" points="952,-245.79 941.5,-247.18 950.58,-252.64 952,-245.79"/>
</g>
<!-- :feature:search&#45;&gt;:navigation -->
<g id="edge61" class="edge">
<title>:feature:search-&gt;:navigation</title>
<path fill="none" stroke="black" d="M1482.68,-293.34C1473.58,-291.41 1464.15,-289.53 1455.25,-288 1327.53,-265.99 1176.71,-249.38 1093.45,-241.02"/>
<polygon fill="black" stroke="black" points="1093.97,-237.56 1083.67,-240.05 1093.27,-244.52 1093.97,-237.56"/>
</g>
<!-- :feature:search&#45;&gt;:core:common -->
<g id="edge62" class="edge">
<title>:feature:search-&gt;:core:common</title>
<path fill="none" stroke="black" d="M1525.26,-287.82C1515.75,-266.91 1496.61,-232.35 1468.25,-216 1392.36,-172.25 1140.49,-164.15 1010.85,-162.95"/>
<polygon fill="black" stroke="black" points="1010.99,-159.45 1000.97,-162.87 1010.94,-166.45 1010.99,-159.45"/>
</g>
<!-- :feature:search&#45;&gt;:core:network -->
<g id="edge64" class="edge">
<title>:feature:search-&gt;:core:network</title>
<path fill="none" stroke="black" d="M1500.41,-289.79C1429.3,-256.62 1251.38,-178.03 1093.25,-144 969.72,-117.42 597.88,-100.18 437.37,-93.79"/>
<polygon fill="black" stroke="black" points="437.83,-90.3 427.7,-93.41 437.55,-97.3 437.83,-90.3"/>
</g>
<!-- :feature:search&#45;&gt;:core:utils -->
<g id="edge66" class="edge">
<title>:feature:search-&gt;:core:utils</title>
<path fill="none" stroke="black" d="M1486.86,-292.29C1414.71,-272.61 1269.12,-235.06 1143.25,-216 933.92,-184.3 878.32,-206.31 668.25,-180 654.19,-178.24 639.08,-175.84 625.06,-173.4"/>
<polygon fill="black" stroke="black" points="626.04,-170.02 615.58,-171.7 624.81,-176.91 626.04,-170.02"/>
</g>
<!-- :feature:watchlist&#45;&gt;:core:designsystem -->
<g id="edge67" class="edge">
<title>:feature:watchlist-&gt;:core:designsystem</title>
<path fill="none" stroke="black" d="M493.15,-377.03C382.51,-375.52 187.52,-366.66 133.25,-324 94.35,-293.42 72.48,-252.16 106.25,-216 146.08,-173.34 572.17,-185.73 630.25,-180 646.94,-178.35 664.78,-176.27 681.78,-174.14"/>
<polygon fill="black" stroke="black" points="681.83,-177.66 691.3,-172.92 680.94,-170.72 681.83,-177.66"/>
</g>
<!-- :feature:watchlist&#45;&gt;:navigation -->
<g id="edge68" class="edge">
<title>:feature:watchlist-&gt;:navigation</title>
<path fill="none" stroke="black" d="M632.58,-366.57C713.12,-352.73 845.53,-329.39 855.25,-324 874.23,-313.47 870.25,-300.13 888.25,-288 903.85,-277.48 946.34,-262.18 980.81,-250.71"/>
<polygon fill="black" stroke="black" points="981.83,-254.06 990.23,-247.61 979.64,-247.41 981.83,-254.06"/>
</g>
<!-- :feature:watchlist&#45;&gt;:core:favoritewatchlist -->
<g id="edge69" class="edge">
<title>:feature:watchlist-&gt;:core:favoritewatchlist</title>
<path fill="none" stroke="black" d="M570.01,-359.7C569.49,-352.41 568.87,-343.73 568.29,-335.54"/>
<polygon fill="black" stroke="black" points="571.78,-335.34 567.58,-325.61 564.8,-335.84 571.78,-335.34"/>
</g>
<!-- :navigation&#45;&gt;:core:domain -->
<g id="edge70" class="edge">
<title>:navigation-&gt;:core:domain</title>
<path fill="none" stroke="black" d="M1030.7,-215.61C1030.26,-195.77 1026.49,-163.55 1008.25,-144 925.78,-55.6 780.6,-29.52 693.13,-21.95"/>
<polygon fill="black" stroke="black" points="693.46,-18.46 683.21,-21.16 692.9,-25.44 693.46,-18.46"/>
</g>
<!-- :core:network&#45;&gt;:core:domain -->
<g id="edge71" class="edge">
<title>:core:network-&gt;:core:domain</title>
<path fill="none" stroke="red" stroke-width="2" d="M407.48,-76.73C451.37,-64.82 518.04,-46.73 565.03,-33.98"/>
<polygon fill="red" stroke="red" stroke-width="2" points="564.27,-37.81 573.01,-31.82 562.44,-31.06 564.27,-37.81"/>
</g>
<!-- :core:coroutines -->
<g id="node23" class="node">
<title>:core:coroutines</title>
<ellipse fill="none" stroke="black" cx="297.25" cy="-18" rx="73.25" ry="18"/>
<text text-anchor="middle" x="297.25" y="-13.8" font-family="Times,serif" font-size="14.00">:core:coroutines</text>
</g>
<!-- :core:network&#45;&gt;:core:coroutines -->
<g id="edge72" class="edge">
<title>:core:network-&gt;:core:coroutines</title>
<path fill="none" stroke="black" d="M346.51,-72.05C338.69,-63.63 329.08,-53.28 320.43,-43.97"/>
<polygon fill="black" stroke="black" points="323.24,-41.84 313.87,-36.9 318.11,-46.61 323.24,-41.84"/>
</g>
<!-- :core:mappers&#45;&gt;:core:domain -->
<g id="edge73" class="edge">
<title>:core:mappers-&gt;:core:domain</title>
<path fill="none" stroke="black" d="M191.05,-144.11C211.42,-123.48 248.9,-89.23 288.25,-72 372.07,-35.3 477.74,-23.67 547.06,-20.17"/>
<polygon fill="black" stroke="black" points="546.94,-23.68 556.77,-19.73 546.63,-16.69 546.94,-23.68"/>
</g>
<!-- :core:mappers&#45;&gt;:core:network -->
<g id="edge74" class="edge">
<title>:core:mappers-&gt;:core:network</title>
<path fill="none" stroke="red" stroke-width="2" d="M213.09,-146.83C242.21,-135.93 282.65,-120.8 314.08,-109.03"/>
<polygon fill="red" stroke="red" stroke-width="2" points="313.81,-112.87 321.95,-106.09 311.35,-106.31 313.81,-112.87"/>
</g>
<!-- :core:database&#45;&gt;:core:domain -->
<g id="edge75" class="edge">
<title>:core:database-&gt;:core:domain</title>
<path fill="none" stroke="black" d="M482.87,-215.8C488.29,-197.26 498.33,-167.28 512.25,-144 535.28,-105.46 570.53,-67.32 594.44,-43.49"/>
<polygon fill="black" stroke="black" points="596.63,-46.25 601.31,-36.75 591.72,-41.26 596.63,-46.25"/>
</g>
<!-- :core:database&#45;&gt;:core:common -->
<g id="edge76" class="edge">
<title>:core:database-&gt;:core:common</title>
<path fill="none" stroke="black" d="M528.05,-221.7C538.02,-219.64 548.44,-217.63 558.25,-216 689.85,-194.11 724.77,-202.59 856.25,-180 861.47,-179.1 866.87,-178.08 872.28,-177"/>
<polygon fill="black" stroke="black" points="872.77,-180.47 881.85,-175 871.35,-173.62 872.77,-180.47"/>
</g>
<!-- :core:database&#45;&gt;:core:utils -->
<g id="edge78" class="edge">
<title>:core:database-&gt;:core:utils</title>
<path fill="none" stroke="black" d="M499.82,-216.76C512.2,-207.45 527.93,-195.61 541.47,-185.41"/>
<polygon fill="black" stroke="black" points="543.34,-188.39 549.23,-179.58 539.13,-182.79 543.34,-188.39"/>
</g>
<!-- :core:database&#45;&gt;:core:coroutines -->
<g id="edge77" class="edge">
<title>:core:database-&gt;:core:coroutines</title>
<path fill="none" stroke="black" d="M437.49,-219.54C391.72,-201.98 319.73,-166.39 288.25,-108 278.23,-89.41 281.39,-65.45 286.56,-47.08"/>
<polygon fill="black" stroke="black" points="289.87,-48.22 289.58,-37.63 283.2,-46.1 289.87,-48.22"/>
</g>
<!-- :core:movie&#45;&gt;:core:domain -->
<g id="edge80" class="edge">
<title>:core:movie-&gt;:core:domain</title>
<path fill="none" stroke="black" d="M321.69,-217.09C363.22,-187.77 455.06,-123.49 534.25,-72 550.53,-61.41 568.82,-50.07 584.33,-40.6"/>
<polygon fill="black" stroke="black" points="586.06,-43.65 592.78,-35.47 582.42,-37.67 586.06,-43.65"/>
</g>
<!-- :core:movie&#45;&gt;:core:common -->
<g id="edge79" class="edge">
<title>:core:movie-&gt;:core:common</title>
<path fill="none" stroke="black" d="M348.07,-224.16C365.44,-221.25 385.18,-218.19 403.25,-216 603.75,-191.69 656.54,-210.12 856.25,-180 861.79,-179.16 867.53,-178.15 873.25,-177.05"/>
<polygon fill="black" stroke="black" points="873.61,-180.55 882.71,-175.12 872.22,-173.69 873.61,-180.55"/>
</g>
<!-- :core:movie&#45;&gt;:core:network -->
<g id="edge82" class="edge">
<title>:core:movie-&gt;:core:network</title>
<path fill="none" stroke="black" d="M306.85,-215.87C317.58,-191.67 337.31,-147.21 350.1,-118.39"/>
<polygon fill="black" stroke="black" points="353.15,-120.13 354.01,-109.57 346.75,-117.29 353.15,-120.13"/>
</g>
<!-- :core:movie&#45;&gt;:core:mappers -->
<g id="edge81" class="edge">
<title>:core:movie-&gt;:core:mappers</title>
<path fill="none" stroke="red" stroke-width="2" d="M272.34,-217.81C254.95,-207.99 232.07,-195.08 212.89,-184.25"/>
<polygon fill="red" stroke="red" stroke-width="2" points="216.03,-182 205.6,-180.13 212.58,-188.1 216.03,-182"/>
</g>
<!-- :core:utils&#45;&gt;:core:domain -->
<g id="edge83" class="edge">
<title>:core:utils-&gt;:core:domain</title>
<path fill="none" stroke="black" d="M577.16,-143.87C585.47,-119.78 600.72,-75.6 610.66,-46.77"/>
<polygon fill="black" stroke="black" points="613.87,-48.21 613.82,-37.62 607.25,-45.93 613.87,-48.21"/>
</g>
<!-- :core:favoritewatchlist&#45;&gt;:core:designsystem -->
<g id="edge91" class="edge">
<title>:core:favoritewatchlist-&gt;:core:designsystem</title>
<path fill="none" stroke="black" d="M622.56,-290.83C648.1,-282.47 677.59,-269.93 700.25,-252 721.18,-235.43 737.94,-209.93 748.73,-190.46"/>
<polygon fill="black" stroke="black" points="751.79,-192.17 753.39,-181.7 745.61,-188.88 751.79,-192.17"/>
</g>
<!-- :core:favoritewatchlist&#45;&gt;:core:domain -->
<g id="edge85" class="edge">
<title>:core:favoritewatchlist-&gt;:core:domain</title>
<path fill="none" stroke="black" d="M578.41,-287.83C594.01,-264.66 620.25,-221.48 630.25,-180 641.24,-134.42 633.58,-79.59 626.96,-47.11"/>
<polygon fill="black" stroke="black" points="630.46,-46.72 624.92,-37.69 623.61,-48.2 630.46,-46.72"/>
</g>
<!-- :core:favoritewatchlist&#45;&gt;:core:uihelper -->
<g id="edge86" class="edge">
<title>:core:favoritewatchlist-&gt;:core:uihelper</title>
<path fill="none" stroke="black" d="M628.14,-291.75C686.55,-279.25 773.63,-260.61 831.87,-248.14"/>
<polygon fill="black" stroke="black" points="832.59,-251.56 841.64,-246.05 831.13,-244.72 832.59,-251.56"/>
</g>
<!-- :core:favoritewatchlist&#45;&gt;:core:user -->
<g id="edge89" class="edge">
<title>:core:favoritewatchlist-&gt;:core:user</title>
<path fill="none" stroke="black" d="M493.8,-293.48C396.08,-277.95 234.05,-252.18 233.25,-252 229.72,-251.2 226.08,-250.32 222.44,-249.37"/>
<polygon fill="black" stroke="black" points="223.6,-246.06 213.03,-246.81 221.76,-252.81 223.6,-246.06"/>
</g>
<!-- :core:favoritewatchlist&#45;&gt;:navigation -->
<g id="edge92" class="edge">
<title>:core:favoritewatchlist-&gt;:navigation</title>
<path fill="none" stroke="black" d="M647.45,-295.56C746.43,-283.82 907.86,-263.88 967.25,-252 971.26,-251.2 975.4,-250.28 979.54,-249.3"/>
<polygon fill="black" stroke="black" points="980.11,-252.77 988.97,-246.96 978.43,-245.97 980.11,-252.77"/>
</g>
<!-- :core:favoritewatchlist&#45;&gt;:core:mappers -->
<g id="edge87" class="edge">
<title>:core:favoritewatchlist-&gt;:core:mappers</title>
<path fill="none" stroke="black" d="M495.53,-293.23C483.44,-291.37 471,-289.55 459.25,-288 383.49,-278 168.38,-308.8 117.25,-252 98.95,-231.67 121.32,-205.03 143.38,-186.2"/>
<polygon fill="black" stroke="black" points="145.32,-189.13 150.88,-180.11 140.91,-183.7 145.32,-189.13"/>
</g>
<!-- :core:favoritewatchlist&#45;&gt;:core:database -->
<g id="edge84" class="edge">
<title>:core:favoritewatchlist-&gt;:core:database</title>
<path fill="none" stroke="black" d="M544.95,-288.05C533.84,-279.22 520.08,-268.27 507.94,-258.62"/>
<polygon fill="black" stroke="black" points="510.24,-255.98 500.24,-252.49 505.88,-261.45 510.24,-255.98"/>
</g>
<!-- :core:favoritewatchlist&#45;&gt;:core:movie -->
<g id="edge88" class="edge">
<title>:core:favoritewatchlist-&gt;:core:movie</title>
<path fill="none" stroke="red" stroke-width="2" d="M511.57,-290.67C465.2,-278.51 399.06,-261.17 352.97,-249.08"/>
<polygon fill="red" stroke="red" stroke-width="2" points="355.48,-246.13 344.92,-246.97 353.71,-252.9 355.48,-246.13"/>
</g>
<!-- :core:favoritewatchlist&#45;&gt;:core:utils -->
<g id="edge90" class="edge">
<title>:core:favoritewatchlist-&gt;:core:utils</title>
<path fill="none" stroke="black" d="M566.86,-287.59C567.71,-263.61 569.24,-220.14 570.25,-191.42"/>
<polygon fill="black" stroke="black" points="573.74,-191.74 570.59,-181.62 566.74,-191.49 573.74,-191.74"/>
</g>
</g>
</svg>