<svg xmlns="http://www.w3.org/2000/svg" xmlns:xlink="http://www.w3.org/1999/xlink" width="280pt" height="116pt" viewBox="0.00 0.00 279.65 116.00">
<g id="graph0" class="graph" transform="scale(1 1) rotate(0) translate(4 112)">
<title>G</title>
<polygon fill="white" stroke="none" points="-4,4 -4,-112 275.65,-112 275.65,4 -4,4"/>
<!-- :core:mappers -->
<g id="node1" class="node">
<title>:core:mappers</title>
<ellipse fill="none" stroke="black" cx="133.99" cy="-90" rx="65.73" ry="18"/>
<text text-anchor="middle" x="133.99" y="-85.8" font-family="Times,serif" font-size="14.00">:core:mappers</text>
</g>
<!-- :core:domain -->
<g id="node2" class="node">
<title>:core:domain</title>
<ellipse fill="none" stroke="black" cx="61.99" cy="-18" rx="61.99" ry="18"/>
<text text-anchor="middle" x="61.99" y="-13.8" font-family="Times,serif" font-size="14.00">:core:domain</text>
</g>
<!-- :core:mappers&#45;&gt;:core:domain -->
<g id="edge1" class="edge">
<title>:core:mappers-&gt;:core:domain</title>
<path fill="none" stroke="black" d="M116.92,-72.41C107.96,-63.69 96.8,-52.85 86.88,-43.21"/>
<polygon fill="black" stroke="black" points="89.62,-40.99 80.01,-36.53 84.74,-46.01 89.62,-40.99"/>
</g>
<!-- :core:network -->
<g id="node3" class="node">
<title>:core:network</title>
<ellipse fill="none" stroke="black" cx="206.99" cy="-18" rx="64.66" ry="18"/>
<text text-anchor="middle" x="206.99" y="-13.8" font-family="Times,serif" font-size="14.00">:core:network</text>
</g>
<!-- :core:mappers&#45;&gt;:core:network -->
<g id="edge2" class="edge">
<title>:core:mappers-&gt;:core:network</title>
<path fill="none" stroke="red" stroke-width="2" d="M151.29,-72.41C160.31,-63.76 171.53,-53 181.52,-43.42"/>
<polygon fill="red" stroke="red" stroke-width="2" points="182.58,-47.26 187.37,-37.81 177.73,-42.2 182.58,-47.26"/>
</g>
</g>
</svg>