<svg xmlns="http://www.w3.org/2000/svg" xmlns:xlink="http://www.w3.org/1999/xlink" width="1245pt" height="116pt" viewBox="0.00 0.00 1245.00 116.00">
<g id="graph0" class="graph" transform="scale(1 1) rotate(0) translate(4 112)">
<title>G</title>
<polygon fill="white" stroke="none" points="-4,4 -4,-112 1240.59,-112 1240.59,4 -4,4"/>
<!-- :core:favoritewatchlist -->
<g id="node1" class="node">
<title>:core:favoritewatchlist</title>
<ellipse fill="none" stroke="black" cx="621.1" cy="-90" rx="97.91" ry="18"/>
<text xml:space="preserve" text-anchor="middle" x="621.1" y="-85.8" font-family="Times,serif" font-size="14.00">:core:favoritewatchlist</text>
</g>
<!-- :core:data -->
<g id="node2" class="node">
<title>:core:data</title>
<ellipse fill="none" stroke="black" cx="49.1" cy="-18" rx="49.1" ry="18"/>
<text xml:space="preserve" text-anchor="middle" x="49.1" y="-13.8" font-family="Times,serif" font-size="14.00">:core:data</text>
</g>
<!-- :core:favoritewatchlist&#45;&gt;:core:data -->
<g id="edge1" class="edge">
<title>:core:favoritewatchlist-&gt;:core:data</title>
<path fill="none" stroke="red" stroke-width="2" d="M527.49,-84.48C423.89,-78.3 252.35,-64.53 107.1,-36 103.5,-35.29 99.8,-34.46 96.09,-33.55"/>
<polygon fill="red" stroke="red" stroke-width="2" points="98.54,-30.58 87.98,-31.41 96.75,-37.35 98.54,-30.58"/>
</g>
<!-- :core:database -->
<g id="node3" class="node">
<title>:core:database</title>
<ellipse fill="none" stroke="black" cx="182.1" cy="-18" rx="66.26" ry="18"/>
<text xml:space="preserve" text-anchor="middle" x="182.1" y="-13.8" font-family="Times,serif" font-size="14.00">:core:database</text>
</g>
<!-- :core:favoritewatchlist&#45;&gt;:core:database -->
<g id="edge2" class="edge">
<title>:core:favoritewatchlist-&gt;:core:database</title>
<path fill="none" stroke="black" d="M541.28,-79.21C467.33,-69.7 354.42,-54.09 257.1,-36 252.17,-35.08 247.07,-34.07 241.96,-33.01"/>
<polygon fill="black" stroke="black" points="242.8,-29.61 232.28,-30.94 241.33,-36.45 242.8,-29.61"/>
</g>
<!-- :core:domain -->
<g id="node4" class="node">
<title>:core:domain</title>
<ellipse fill="none" stroke="black" cx="328.1" cy="-18" rx="61.99" ry="18"/>
<text xml:space="preserve" text-anchor="middle" x="328.1" y="-13.8" font-family="Times,serif" font-size="14.00">:core:domain</text>
</g>
<!-- :core:favoritewatchlist&#45;&gt;:core:domain -->
<g id="edge3" class="edge">
<title>:core:favoritewatchlist-&gt;:core:domain</title>
<path fill="none" stroke="black" d="M563.14,-75.17C518.34,-64.48 454.79,-49.31 399.1,-36 394.79,-34.97 390.33,-33.9 385.84,-32.83"/>
<polygon fill="black" stroke="black" points="386.71,-29.44 376.17,-30.51 385.08,-36.24 386.71,-29.44"/>
</g>
<!-- :core:uihelper -->
<g id="node5" class="node">
<title>:core:uihelper</title>
<ellipse fill="none" stroke="black" cx="473.1" cy="-18" rx="64.66" ry="18"/>
<text xml:space="preserve" text-anchor="middle" x="473.1" y="-13.8" font-family="Times,serif" font-size="14.00">:core:uihelper</text>
</g>
<!-- :core:favoritewatchlist&#45;&gt;:core:uihelper -->
<g id="edge4" class="edge">
<title>:core:favoritewatchlist-&gt;:core:uihelper</title>
<path fill="none" stroke="black" d="M586.78,-72.76C565.4,-62.65 537.75,-49.58 515.07,-38.85"/>
<polygon fill="black" stroke="black" points="516.62,-35.71 506.08,-34.6 513.63,-42.04 516.62,-35.71"/>
</g>
<!-- :core:mappers -->
<g id="node6" class="node">
<title>:core:mappers</title>
<ellipse fill="none" stroke="black" cx="621.1" cy="-18" rx="65.73" ry="18"/>
<text xml:space="preserve" text-anchor="middle" x="621.1" y="-13.8" font-family="Times,serif" font-size="14.00">:core:mappers</text>
</g>
<!-- :core:favoritewatchlist&#45;&gt;:core:mappers -->
<g id="edge5" class="edge">
<title>:core:favoritewatchlist-&gt;:core:mappers</title>
<path fill="none" stroke="black" d="M621.1,-71.7C621.1,-64.41 621.1,-55.73 621.1,-47.54"/>
<polygon fill="black" stroke="black" points="624.6,-47.62 621.1,-37.62 617.6,-47.62 624.6,-47.62"/>
</g>
<!-- :core:user -->
<g id="node7" class="node">
<title>:core:user</title>
<ellipse fill="none" stroke="black" cx="754.1" cy="-18" rx="49.11" ry="18"/>
<text xml:space="preserve" text-anchor="middle" x="754.1" y="-13.8" font-family="Times,serif" font-size="14.00">:core:user</text>
</g>
<!-- :core:favoritewatchlist&#45;&gt;:core:user -->
<g id="edge6" class="edge">
<title>:core:favoritewatchlist-&gt;:core:user</title>
<path fill="none" stroke="black" d="M652.29,-72.59C671.51,-62.47 696.28,-49.44 716.57,-38.75"/>
<polygon fill="black" stroke="black" points="718.16,-41.87 725.38,-34.12 714.9,-35.68 718.16,-41.87"/>
</g>
<!-- :core:utils -->
<g id="node8" class="node">
<title>:core:utils</title>
<ellipse fill="none" stroke="black" cx="871.1" cy="-18" rx="49.65" ry="18"/>
<text xml:space="preserve" text-anchor="middle" x="871.1" y="-13.8" font-family="Times,serif" font-size="14.00">:core:utils</text>
</g>
<!-- :core:favoritewatchlist&#45;&gt;:core:utils -->
<g id="edge7" class="edge">
<title>:core:favoritewatchlist-&gt;:core:utils</title>
<path fill="none" stroke="black" d="M673.84,-74.52C712.21,-63.94 765.41,-49.2 812.1,-36 815.38,-35.07 818.76,-34.11 822.17,-33.14"/>
<polygon fill="black" stroke="black" points="822.93,-36.56 831.58,-30.45 821,-29.83 822.93,-36.56"/>
</g>
<!-- :core:designsystem -->
<g id="node9" class="node">
<title>:core:designsystem</title>
<ellipse fill="none" stroke="black" cx="1024.1" cy="-18" rx="85.06" ry="18"/>
<text xml:space="preserve" text-anchor="middle" x="1024.1" y="-13.8" font-family="Times,serif" font-size="14.00">:core:designsystem</text>
</g>
<!-- :core:favoritewatchlist&#45;&gt;:core:designsystem -->
<g id="edge8" class="edge">
<title>:core:favoritewatchlist-&gt;:core:designsystem</title>
<path fill="none" stroke="black" d="M691.39,-77.13C754.04,-66.51 848.22,-50.43 930.1,-36 936.54,-34.87 943.22,-33.68 949.92,-32.48"/>
<polygon fill="black" stroke="black" points="950.45,-35.94 959.68,-30.73 949.22,-29.05 950.45,-35.94"/>
</g>
<!-- :navigation -->
<g id="node10" class="node">
<title>:navigation</title>
<ellipse fill="none" stroke="black" cx="1182.1" cy="-18" rx="54.48" ry="18"/>
<text xml:space="preserve" text-anchor="middle" x="1182.1" y="-13.8" font-family="Times,serif" font-size="14.00">:navigation</text>
</g>
<!-- :core:favoritewatchlist&#45;&gt;:navigation -->
<g id="edge9" class="edge">
<title>:core:favoritewatchlist-&gt;:navigation</title>
<path fill="none" stroke="black" d="M712.86,-83.45C813.05,-76.4 977.96,-61.93 1118.1,-36 1122.37,-35.21 1126.77,-34.28 1131.17,-33.28"/>
<polygon fill="black" stroke="black" points="1131.66,-36.76 1140.56,-31.01 1130.02,-29.96 1131.66,-36.76"/>
</g>
</g>
</svg>