<svg xmlns="http://www.w3.org/2000/svg" xmlns:xlink="http://www.w3.org/1999/xlink" width="447pt" height="116pt" viewBox="0.00 0.00 447.00 116.00">
<g id="graph0" class="graph" transform="scale(1 1) rotate(0) translate(4 112)">
<title>G</title>
<polygon fill="white" stroke="none" points="-4,4 -4,-112 443.47,-112 443.47,4 -4,4"/>
<!-- :core:uihelper -->
<g id="node1" class="node">
<title>:core:uihelper</title>
<ellipse fill="none" stroke="black" cx="236.81" cy="-90" rx="64.66" ry="18"/>
<text xml:space="preserve" text-anchor="middle" x="236.81" y="-85.8" font-family="Times,serif" font-size="14.00">:core:uihelper</text>
</g>
<!-- :core:common -->
<g id="node2" class="node">
<title>:core:common</title>
<ellipse fill="none" stroke="black" cx="66.81" cy="-18" rx="66.81" ry="18"/>
<text xml:space="preserve" text-anchor="middle" x="66.81" y="-13.8" font-family="Times,serif" font-size="14.00">:core:common</text>
</g>
<!-- :core:uihelper&#45;&gt;:core:common -->
<g id="edge1" class="edge">
<title>:core:uihelper-&gt;:core:common</title>
<path fill="none" stroke="black" d="M201.59,-74.5C175.8,-63.88 140.58,-49.38 112.61,-37.86"/>
<polygon fill="black" stroke="black" points="114.26,-34.75 103.68,-34.18 111.6,-41.23 114.26,-34.75"/>
</g>
<!-- :core:designsystem -->
<g id="node3" class="node">
<title>:core:designsystem</title>
<ellipse fill="none" stroke="black" cx="236.81" cy="-18" rx="85.06" ry="18"/>
<text xml:space="preserve" text-anchor="middle" x="236.81" y="-13.8" font-family="Times,serif" font-size="14.00">:core:designsystem</text>
</g>
<!-- :core:uihelper&#45;&gt;:core:designsystem -->
<g id="edge2" class="edge">
<title>:core:uihelper-&gt;:core:designsystem</title>
<path fill="none" stroke="black" d="M236.81,-71.7C236.81,-64.41 236.81,-55.73 236.81,-47.54"/>
<polygon fill="black" stroke="black" points="240.31,-47.62 236.81,-37.62 233.31,-47.62 240.31,-47.62"/>
</g>
<!-- :core:utils -->
<g id="node4" class="node">
<title>:core:utils</title>
<ellipse fill="none" stroke="black" cx="389.81" cy="-18" rx="49.65" ry="18"/>
<text xml:space="preserve" text-anchor="middle" x="389.81" y="-13.8" font-family="Times,serif" font-size="14.00">:core:utils</text>
</g>
<!-- :core:uihelper&#45;&gt;:core:utils -->
<g id="edge3" class="edge">
<title>:core:uihelper-&gt;:core:utils</title>
<path fill="none" stroke="black" d="M269.26,-74.15C292.67,-63.44 324.43,-48.91 349.47,-37.46"/>
<polygon fill="black" stroke="black" points="350.74,-40.73 358.38,-33.38 347.83,-34.36 350.74,-40.73"/>
</g>
</g>
</svg>