<svg xmlns="http://www.w3.org/2000/svg" xmlns:xlink="http://www.w3.org/1999/xlink" width="296pt" height="116pt" viewBox="0.00 0.00 296.23 116.00">
<g id="graph0" class="graph" transform="scale(1 1) rotate(0) translate(4 112)">
<title>G</title>
<polygon fill="white" stroke="none" points="-4,4 -4,-112 292.23,-112 292.23,4 -4,4"/>
<!-- :core:network -->
<g id="node1" class="node">
<title>:core:network</title>
<ellipse fill="none" stroke="black" cx="137.99" cy="-90" rx="64.66" ry="18"/>
<text text-anchor="middle" x="137.99" y="-85.8" font-family="Times,serif" font-size="14.00">:core:network</text>
</g>
<!-- :core:domain -->
<g id="node2" class="node">
<title>:core:domain</title>
<ellipse fill="none" stroke="black" cx="61.99" cy="-18" rx="61.99" ry="18"/>
<text text-anchor="middle" x="61.99" y="-13.8" font-family="Times,serif" font-size="14.00">:core:domain</text>
</g>
<!-- :core:network&#45;&gt;:core:domain -->
<g id="edge1" class="edge">
<title>:core:network-&gt;:core:domain</title>
<path fill="none" stroke="red" stroke-width="2" d="M119.97,-72.41C110.51,-63.69 98.73,-52.85 88.27,-43.21"/>
<polygon fill="red" stroke="red" stroke-width="2" points="91.82,-41.72 82.09,-37.52 87.08,-46.87 91.82,-41.72"/>
</g>
<!-- :core:coroutines -->
<g id="node3" class="node">
<title>:core:coroutines</title>
<ellipse fill="none" stroke="black" cx="214.99" cy="-18" rx="73.25" ry="18"/>
<text text-anchor="middle" x="214.99" y="-13.8" font-family="Times,serif" font-size="14.00">:core:coroutines</text>
</g>
<!-- :core:network&#45;&gt;:core:coroutines -->
<g id="edge2" class="edge">
<title>:core:network-&gt;:core:coroutines</title>
<path fill="none" stroke="black" d="M156.23,-72.41C165.75,-63.76 177.58,-53 188.13,-43.42"/>
<polygon fill="black" stroke="black" points="190.44,-46.05 195.48,-36.73 185.73,-40.87 190.44,-46.05"/>
</g>
</g>
</svg>