<svg xmlns="http://www.w3.org/2000/svg" xmlns:xlink="http://www.w3.org/1999/xlink" width="397pt" height="188pt" viewBox="0.00 0.00 396.80 188.00">
<g id="graph0" class="graph" transform="scale(1 1) rotate(0) translate(4 184)">
<title>G</title>
<polygon fill="white" stroke="none" points="-4,4 -4,-184 392.8,-184 392.8,4 -4,4"/>
<!-- :core:uihelper -->
<g id="node1" class="node">
<title>:core:uihelper</title>
<ellipse fill="none" stroke="black" cx="161.81" cy="-162" rx="64.66" ry="18"/>
<text text-anchor="middle" x="161.81" y="-157.8" font-family="Times,serif" font-size="14.00">:core:uihelper</text>
</g>
<!-- :core:common -->
<g id="node2" class="node">
<title>:core:common</title>
<ellipse fill="none" stroke="black" cx="66.81" cy="-90" rx="66.81" ry="18"/>
<text text-anchor="middle" x="66.81" y="-85.8" font-family="Times,serif" font-size="14.00">:core:common</text>
</g>
<!-- :core:uihelper&#45;&gt;:core:common -->
<g id="edge1" class="edge">
<title>:core:uihelper-&gt;:core:common</title>
<path fill="none" stroke="black" d="M139.78,-144.76C127.4,-135.64 111.74,-124.1 98.11,-114.06"/>
<polygon fill="black" stroke="black" points="100.4,-111.4 90.28,-108.29 96.25,-117.04 100.4,-111.4"/>
</g>
<!-- :core:designsystem -->
<g id="node3" class="node">
<title>:core:designsystem</title>
<ellipse fill="none" stroke="black" cx="161.81" cy="-18" rx="85.06" ry="18"/>
<text text-anchor="middle" x="161.81" y="-13.8" font-family="Times,serif" font-size="14.00">:core:designsystem</text>
</g>
<!-- :core:uihelper&#45;&gt;:core:designsystem -->
<g id="edge2" class="edge">
<title>:core:uihelper-&gt;:core:designsystem</title>
<path fill="none" stroke="black" d="M161.81,-143.59C161.81,-119.61 161.81,-76.14 161.81,-47.42"/>
<polygon fill="black" stroke="black" points="165.31,-47.62 161.81,-37.62 158.31,-47.62 165.31,-47.62"/>
</g>
<!-- :core:utils -->
<g id="node4" class="node">
<title>:core:utils</title>
<ellipse fill="none" stroke="black" cx="239.81" cy="-90" rx="49.65" ry="18"/>
<text text-anchor="middle" x="239.81" y="-85.8" font-family="Times,serif" font-size="14.00">:core:utils</text>
</g>
<!-- :core:uihelper&#45;&gt;:core:utils -->
<g id="edge3" class="edge">
<title>:core:uihelper-&gt;:core:utils</title>
<path fill="none" stroke="red" stroke-width="2" d="M180.3,-144.41C190.18,-135.54 202.52,-124.47 213.4,-114.71"/>
<polygon fill="red" stroke="red" stroke-width="2" points="214.37,-118.53 219.48,-109.25 209.7,-113.32 214.37,-118.53"/>
</g>
<!-- :core:utils&#45;&gt;:core:designsystem -->
<g id="edge4" class="edge">
<title>:core:utils-&gt;:core:designsystem</title>
<path fill="none" stroke="red" stroke-width="2" d="M221.72,-72.76C211.99,-64.03 199.8,-53.09 188.95,-43.36"/>
<polygon fill="red" stroke="red" stroke-width="2" points="192.65,-41.97 182.87,-37.9 187.98,-47.18 192.65,-41.97"/>
</g>
<!-- :core:domain -->
<g id="node5" class="node">
<title>:core:domain</title>
<ellipse fill="none" stroke="black" cx="326.81" cy="-18" rx="61.99" ry="18"/>
<text text-anchor="middle" x="326.81" y="-13.8" font-family="Times,serif" font-size="14.00">:core:domain</text>
</g>
<!-- :core:utils&#45;&gt;:core:domain -->
<g id="edge5" class="edge">
<title>:core:utils-&gt;:core:domain</title>
<path fill="none" stroke="black" d="M259.56,-73.12C270.85,-64.03 285.23,-52.46 297.79,-42.35"/>
<polygon fill="black" stroke="black" points="299.77,-45.25 305.37,-36.26 295.38,-39.8 299.77,-45.25"/>
</g>
</g>
</svg>