<svg xmlns="http://www.w3.org/2000/svg" xmlns:xlink="http://www.w3.org/1999/xlink" width="687pt" height="116pt" viewBox="0.00 0.00 687.00 116.00">
<g id="graph0" class="graph" transform="scale(1 1) rotate(0) translate(4 112)">
<title>G</title>
<polygon fill="white" stroke="none" points="-4,4 -4,-112 682.71,-112 682.71,4 -4,4"/>
<!-- :feature:home -->
<g id="node1" class="node">
<title>:feature:home</title>
<ellipse fill="none" stroke="black" cx="365.06" cy="-90" rx="64.66" ry="18"/>
<text xml:space="preserve" text-anchor="middle" x="365.06" y="-85.8" font-family="Times,serif" font-size="14.00">:feature:home</text>
</g>
<!-- :core:designsystem -->
<g id="node2" class="node">
<title>:core:designsystem</title>
<ellipse fill="none" stroke="black" cx="85.06" cy="-18" rx="85.06" ry="18"/>
<text xml:space="preserve" text-anchor="middle" x="85.06" y="-13.8" font-family="Times,serif" font-size="14.00">:core:designsystem</text>
</g>
<!-- :feature:home&#45;&gt;:core:designsystem -->
<g id="edge1" class="edge">
<title>:feature:home-&gt;:core:designsystem</title>
<path fill="none" stroke="black" d="M318.19,-77.28C271.92,-65.72 200.82,-47.94 149.3,-35.06"/>
<polygon fill="black" stroke="black" points="150.31,-31.71 139.76,-32.68 148.61,-38.5 150.31,-31.71"/>
</g>
<!-- :navigation -->
<g id="node3" class="node">
<title>:navigation</title>
<ellipse fill="none" stroke="black" cx="243.06" cy="-18" rx="54.48" ry="18"/>
<text xml:space="preserve" text-anchor="middle" x="243.06" y="-13.8" font-family="Times,serif" font-size="14.00">:navigation</text>
</g>
<!-- :feature:home&#45;&gt;:navigation -->
<g id="edge2" class="edge">
<title>:feature:home-&gt;:navigation</title>
<path fill="none" stroke="black" d="M337.68,-73.29C320.49,-63.43 298.12,-50.59 279.44,-39.88"/>
<polygon fill="black" stroke="black" points="281.24,-36.87 270.82,-34.93 277.75,-42.94 281.24,-36.87"/>
</g>
<!-- :core:data -->
<g id="node4" class="node">
<title>:core:data</title>
<ellipse fill="none" stroke="black" cx="365.06" cy="-18" rx="49.1" ry="18"/>
<text xml:space="preserve" text-anchor="middle" x="365.06" y="-13.8" font-family="Times,serif" font-size="14.00">:core:data</text>
</g>
<!-- :feature:home&#45;&gt;:core:data -->
<g id="edge3" class="edge">
<title>:feature:home-&gt;:core:data</title>
<path fill="none" stroke="black" d="M365.06,-71.7C365.06,-64.41 365.06,-55.73 365.06,-47.54"/>
<polygon fill="black" stroke="black" points="368.56,-47.62 365.06,-37.62 361.56,-47.62 368.56,-47.62"/>
</g>
<!-- :core:uihelper -->
<g id="node5" class="node">
<title>:core:uihelper</title>
<ellipse fill="none" stroke="black" cx="497.06" cy="-18" rx="64.66" ry="18"/>
<text xml:space="preserve" text-anchor="middle" x="497.06" y="-13.8" font-family="Times,serif" font-size="14.00">:core:uihelper</text>
</g>
<!-- :feature:home&#45;&gt;:core:uihelper -->
<g id="edge4" class="edge">
<title>:feature:home-&gt;:core:uihelper</title>
<path fill="none" stroke="black" d="M394.03,-73.64C412.85,-63.65 437.62,-50.52 458.16,-39.63"/>
<polygon fill="black" stroke="black" points="459.62,-42.81 466.82,-35.04 456.35,-36.63 459.62,-42.81"/>
</g>
<!-- :core:utils -->
<g id="node6" class="node">
<title>:core:utils</title>
<ellipse fill="none" stroke="black" cx="629.06" cy="-18" rx="49.65" ry="18"/>
<text xml:space="preserve" text-anchor="middle" x="629.06" y="-13.8" font-family="Times,serif" font-size="14.00">:core:utils</text>
</g>
<!-- :feature:home&#45;&gt;:core:utils -->
<g id="edge5" class="edge">
<title>:feature:home-&gt;:core:utils</title>
<path fill="none" stroke="black" d="M412.22,-77.34C454.05,-66.89 516.76,-50.94 571.06,-36 574.19,-35.14 577.41,-34.24 580.65,-33.32"/>
<polygon fill="black" stroke="black" points="581.57,-36.7 590.21,-30.57 579.64,-29.97 581.57,-36.7"/>
</g>
</g>
</svg>