<svg xmlns="http://www.w3.org/2000/svg" xmlns:xlink="http://www.w3.org/1999/xlink" width="703pt" height="116pt" viewBox="0.00 0.00 703.00 116.00">
<g id="graph0" class="graph" transform="scale(1 1) rotate(0) translate(4 112)">
<title>G</title>
<polygon fill="white" stroke="none" points="-4,4 -4,-112 698.71,-112 698.71,4 -4,4"/>
<!-- :feature:list -->
<g id="node1" class="node">
<title>:feature:list</title>
<ellipse fill="none" stroke="black" cx="373.06" cy="-90" rx="55.01" ry="18"/>
<text xml:space="preserve" text-anchor="middle" x="373.06" y="-85.8" font-family="Times,serif" font-size="14.00">:feature:list</text>
</g>
<!-- :core:designsystem -->
<g id="node2" class="node">
<title>:core:designsystem</title>
<ellipse fill="none" stroke="black" cx="85.06" cy="-18" rx="85.06" ry="18"/>
<text xml:space="preserve" text-anchor="middle" x="85.06" y="-13.8" font-family="Times,serif" font-size="14.00">:core:designsystem</text>
</g>
<!-- :feature:list&#45;&gt;:core:designsystem -->
<g id="edge1" class="edge">
<title>:feature:list-&gt;:core:designsystem</title>
<path fill="none" stroke="black" d="M329.94,-78.52C282.45,-66.98 205.54,-48.28 150.58,-34.93"/>
<polygon fill="black" stroke="black" points="151.57,-31.56 141.02,-32.6 149.91,-38.37 151.57,-31.56"/>
</g>
<!-- :navigation -->
<g id="node3" class="node">
<title>:navigation</title>
<ellipse fill="none" stroke="black" cx="243.06" cy="-18" rx="54.48" ry="18"/>
<text xml:space="preserve" text-anchor="middle" x="243.06" y="-13.8" font-family="Times,serif" font-size="14.00">:navigation</text>
</g>
<!-- :feature:list&#45;&gt;:navigation -->
<g id="edge2" class="edge">
<title>:feature:list-&gt;:navigation</title>
<path fill="none" stroke="black" d="M345.49,-74.15C326.61,-63.99 301.36,-50.39 280.64,-39.24"/>
<polygon fill="black" stroke="black" points="282.38,-36.2 271.92,-34.54 279.07,-42.36 282.38,-36.2"/>
</g>
<!-- :core:movie -->
<g id="node4" class="node">
<title>:core:movie</title>
<ellipse fill="none" stroke="black" cx="373.06" cy="-18" rx="57.16" ry="18"/>
<text xml:space="preserve" text-anchor="middle" x="373.06" y="-13.8" font-family="Times,serif" font-size="14.00">:core:movie</text>
</g>
<!-- :feature:list&#45;&gt;:core:movie -->
<g id="edge3" class="edge">
<title>:feature:list-&gt;:core:movie</title>
<path fill="none" stroke="red" stroke-width="2" d="M373.06,-71.7C373.06,-64.41 373.06,-55.73 373.06,-47.54"/>
<polygon fill="red" stroke="red" stroke-width="2" points="376.56,-49.13 373.06,-39.13 369.56,-49.13 376.56,-49.13"/>
</g>
<!-- :core:uihelper -->
<g id="node5" class="node">
<title>:core:uihelper</title>
<ellipse fill="none" stroke="black" cx="513.06" cy="-18" rx="64.66" ry="18"/>
<text xml:space="preserve" text-anchor="middle" x="513.06" y="-13.8" font-family="Times,serif" font-size="14.00">:core:uihelper</text>
</g>
<!-- :feature:list&#45;&gt;:core:uihelper -->
<g id="edge4" class="edge">
<title>:feature:list-&gt;:core:uihelper</title>
<path fill="none" stroke="black" d="M402.41,-74.33C422.76,-64.15 450.12,-50.47 472.55,-39.26"/>
<polygon fill="black" stroke="black" points="474.05,-42.42 481.43,-34.82 470.92,-36.16 474.05,-42.42"/>
</g>
<!-- :core:utils -->
<g id="node6" class="node">
<title>:core:utils</title>
<ellipse fill="none" stroke="black" cx="645.06" cy="-18" rx="49.65" ry="18"/>
<text xml:space="preserve" text-anchor="middle" x="645.06" y="-13.8" font-family="Times,serif" font-size="14.00">:core:utils</text>
</g>
<!-- :feature:list&#45;&gt;:core:utils -->
<g id="edge5" class="edge">
<title>:feature:list-&gt;:core:utils</title>
<path fill="none" stroke="black" d="M416.64,-78.78C459.98,-68.48 528.31,-51.88 587.06,-36 590.19,-35.15 593.41,-34.26 596.66,-33.35"/>
<polygon fill="black" stroke="black" points="597.57,-36.73 606.23,-30.62 595.65,-30 597.57,-36.73"/>
</g>
</g>
</svg>