<svg xmlns="http://www.w3.org/2000/svg" xmlns:xlink="http://www.w3.org/1999/xlink" width="1160pt" height="116pt" viewBox="0.00 0.00 1160.00 116.00">
<g id="graph0" class="graph" transform="scale(1 1) rotate(0) translate(4 112)">
<title>G</title>
<polygon fill="white" stroke="none" points="-4,4 -4,-112 1155.71,-112 1155.71,4 -4,4"/>
<!-- :feature:person -->
<g id="node1" class="node">
<title>:feature:person</title>
<ellipse fill="none" stroke="black" cx="602.06" cy="-90" rx="68.95" ry="18"/>
<text xml:space="preserve" text-anchor="middle" x="602.06" y="-85.8" font-family="Times,serif" font-size="14.00">:feature:person</text>
</g>
<!-- :core:designsystem -->
<g id="node2" class="node">
<title>:core:designsystem</title>
<ellipse fill="none" stroke="black" cx="85.06" cy="-18" rx="85.06" ry="18"/>
<text xml:space="preserve" text-anchor="middle" x="85.06" y="-13.8" font-family="Times,serif" font-size="14.00">:core:designsystem</text>
</g>
<!-- :feature:person&#45;&gt;:core:designsystem -->
<g id="edge1" class="edge">
<title>:feature:person-&gt;:core:designsystem</title>
<path fill="none" stroke="black" d="M539.35,-82.16C456.81,-72.92 307.26,-55.36 180.06,-36 173.1,-34.94 165.87,-33.77 158.64,-32.56"/>
<polygon fill="black" stroke="black" points="159.26,-29.11 148.82,-30.88 158.08,-36.01 159.26,-29.11"/>
</g>
<!-- :navigation -->
<g id="node3" class="node">
<title>:navigation</title>
<ellipse fill="none" stroke="black" cx="243.06" cy="-18" rx="54.48" ry="18"/>
<text xml:space="preserve" text-anchor="middle" x="243.06" y="-13.8" font-family="Times,serif" font-size="14.00">:navigation</text>
</g>
<!-- :feature:person&#45;&gt;:navigation -->
<g id="edge2" class="edge">
<title>:feature:person-&gt;:navigation</title>
<path fill="none" stroke="black" d="M543.63,-80.07C483.71,-70.55 387.95,-54.34 306.06,-36 302.3,-35.16 298.42,-34.24 294.53,-33.28"/>
<polygon fill="black" stroke="black" points="295.62,-29.94 285.06,-30.87 293.89,-36.73 295.62,-29.94"/>
</g>
<!-- :core:common -->
<g id="node4" class="node">
<title>:core:common</title>
<ellipse fill="none" stroke="black" cx="382.06" cy="-18" rx="66.81" ry="18"/>
<text xml:space="preserve" text-anchor="middle" x="382.06" y="-13.8" font-family="Times,serif" font-size="14.00">:core:common</text>
</g>
<!-- :feature:person&#45;&gt;:core:common -->
<g id="edge3" class="edge">
<title>:feature:person-&gt;:core:common</title>
<path fill="none" stroke="black" d="M559.38,-75.42C523.78,-64.09 472.9,-47.9 434.76,-35.77"/>
<polygon fill="black" stroke="black" points="435.9,-32.46 425.31,-32.76 433.78,-39.13 435.9,-32.46"/>
</g>
<!-- :core:domain -->
<g id="node5" class="node">
<title>:core:domain</title>
<ellipse fill="none" stroke="black" cx="529.06" cy="-18" rx="61.99" ry="18"/>
<text xml:space="preserve" text-anchor="middle" x="529.06" y="-13.8" font-family="Times,serif" font-size="14.00">:core:domain</text>
</g>
<!-- :feature:person&#45;&gt;:core:domain -->
<g id="edge4" class="edge">
<title>:feature:person-&gt;:core:domain</title>
<path fill="none" stroke="black" d="M584.76,-72.41C575.73,-63.76 564.52,-53 554.52,-43.42"/>
<polygon fill="black" stroke="black" points="557.22,-41.16 547.58,-36.76 552.37,-46.21 557.22,-41.16"/>
</g>
<!-- :core:mappers -->
<g id="node6" class="node">
<title>:core:mappers</title>
<ellipse fill="none" stroke="black" cx="675.06" cy="-18" rx="65.73" ry="18"/>
<text xml:space="preserve" text-anchor="middle" x="675.06" y="-13.8" font-family="Times,serif" font-size="14.00">:core:mappers</text>
</g>
<!-- :feature:person&#45;&gt;:core:mappers -->
<g id="edge5" class="edge">
<title>:feature:person-&gt;:core:mappers</title>
<path fill="none" stroke="black" d="M619.36,-72.41C628.38,-63.76 639.6,-53 649.59,-43.42"/>
<polygon fill="black" stroke="black" points="651.74,-46.21 656.54,-36.76 646.9,-41.16 651.74,-46.21"/>
</g>
<!-- :core:network -->
<g id="node7" class="node">
<title>:core:network</title>
<ellipse fill="none" stroke="black" cx="823.06" cy="-18" rx="64.66" ry="18"/>
<text xml:space="preserve" text-anchor="middle" x="823.06" y="-13.8" font-family="Times,serif" font-size="14.00">:core:network</text>
</g>
<!-- :feature:person&#45;&gt;:core:network -->
<g id="edge6" class="edge">
<title>:feature:person-&gt;:core:network</title>
<path fill="none" stroke="black" d="M644.67,-75.5C680.78,-64.06 732.69,-47.62 771.21,-35.42"/>
<polygon fill="black" stroke="black" points="771.78,-38.91 780.26,-32.56 769.67,-32.24 771.78,-38.91"/>
</g>
<!-- :core:uihelper -->
<g id="node8" class="node">
<title>:core:uihelper</title>
<ellipse fill="none" stroke="black" cx="970.06" cy="-18" rx="64.66" ry="18"/>
<text xml:space="preserve" text-anchor="middle" x="970.06" y="-13.8" font-family="Times,serif" font-size="14.00">:core:uihelper</text>
</g>
<!-- :feature:person&#45;&gt;:core:uihelper -->
<g id="edge7" class="edge">
<title>:feature:person-&gt;:core:uihelper</title>
<path fill="none" stroke="black" d="M659.33,-79.6C718.89,-69.62 814.75,-52.97 897.06,-36 901.65,-35.05 906.39,-34.04 911.15,-32.99"/>
<polygon fill="black" stroke="black" points="911.76,-36.44 920.75,-30.84 910.23,-29.61 911.76,-36.44"/>
</g>
<!-- :core:utils -->
<g id="node9" class="node">
<title>:core:utils</title>
<ellipse fill="none" stroke="black" cx="1102.06" cy="-18" rx="49.65" ry="18"/>
<text xml:space="preserve" text-anchor="middle" x="1102.06" y="-13.8" font-family="Times,serif" font-size="14.00">:core:utils</text>
</g>
<!-- :feature:person&#45;&gt;:core:utils -->
<g id="edge8" class="edge">
<title>:feature:person-&gt;:core:utils</title>
<path fill="none" stroke="black" d="M668.13,-84.51C755.02,-77.83 912.13,-63.05 1044.06,-36 1047.6,-35.27 1051.25,-34.43 1054.9,-33.52"/>
<polygon fill="black" stroke="black" points="1055.55,-36.97 1064.32,-31.02 1053.75,-30.21 1055.55,-36.97"/>
</g>
</g>
</svg>