<svg xmlns="http://www.w3.org/2000/svg" xmlns:xlink="http://www.w3.org/1999/xlink" width="519pt" height="116pt" viewBox="0.00 0.00 518.97 116.00">
<g id="graph0" class="graph" transform="scale(1 1) rotate(0) translate(4 112)">
<title>G</title>
<polygon fill="white" stroke="none" points="-4,4 -4,-112 514.97,-112 514.97,4 -4,4"/>
<!-- :feature:favorite -->
<g id="node1" class="node">
<title>:feature:favorite</title>
<ellipse fill="none" stroke="black" cx="243.06" cy="-90" rx="73.23" ry="18"/>
<text text-anchor="middle" x="243.06" y="-85.8" font-family="Times,serif" font-size="14.00">:feature:favorite</text>
</g>
<!-- :core:designsystem -->
<g id="node2" class="node">
<title>:core:designsystem</title>
<ellipse fill="none" stroke="black" cx="85.06" cy="-18" rx="85.06" ry="18"/>
<text text-anchor="middle" x="85.06" y="-13.8" font-family="Times,serif" font-size="14.00">:core:designsystem</text>
</g>
<!-- :feature:favorite&#45;&gt;:core:designsystem -->
<g id="edge1" class="edge">
<title>:feature:favorite-&gt;:core:designsystem</title>
<path fill="none" stroke="black" d="M208.77,-73.81C185.98,-63.71 155.79,-50.34 130.93,-39.32"/>
<polygon fill="black" stroke="black" points="132.59,-36.23 122.03,-35.38 129.75,-42.63 132.59,-36.23"/>
</g>
<!-- :navigation -->
<g id="node3" class="node">
<title>:navigation</title>
<ellipse fill="none" stroke="black" cx="243.06" cy="-18" rx="54.48" ry="18"/>
<text text-anchor="middle" x="243.06" y="-13.8" font-family="Times,serif" font-size="14.00">:navigation</text>
</g>
<!-- :feature:favorite&#45;&gt;:navigation -->
<g id="edge2" class="edge">
<title>:feature:favorite-&gt;:navigation</title>
<path fill="none" stroke="black" d="M243.06,-71.7C243.06,-64.41 243.06,-55.73 243.06,-47.54"/>
<polygon fill="black" stroke="black" points="246.56,-47.62 243.06,-37.62 239.56,-47.62 246.56,-47.62"/>
</g>
<!-- :core:favoritewatchlist -->
<g id="node4" class="node">
<title>:core:favoritewatchlist</title>
<ellipse fill="none" stroke="black" cx="413.06" cy="-18" rx="97.91" ry="18"/>
<text text-anchor="middle" x="413.06" y="-13.8" font-family="Times,serif" font-size="14.00">:core:favoritewatchlist</text>
</g>
<!-- :feature:favorite&#45;&gt;:core:favoritewatchlist -->
<g id="edge3" class="edge">
<title>:feature:favorite-&gt;:core:favoritewatchlist</title>
<path fill="none" stroke="red" stroke-width="2" d="M279.53,-73.98C304.16,-63.84 336.97,-50.33 363.9,-39.24"/>
<polygon fill="red" stroke="red" stroke-width="2" points="363.57,-43.16 371.48,-36.12 360.91,-36.69 363.57,-43.16"/>
</g>
</g>
</svg>