<svg xmlns="http://www.w3.org/2000/svg" xmlns:xlink="http://www.w3.org/1999/xlink" width="863pt" height="116pt" viewBox="0.00 0.00 863.17 116.00">
<g id="graph0" class="graph" transform="scale(1 1) rotate(0) translate(4 112)">
<title>G</title>
<polygon fill="white" stroke="none" points="-4,4 -4,-112 859.17,-112 859.17,4 -4,4"/>
<!-- :feature:login -->
<g id="node1" class="node">
<title>:feature:login</title>
<ellipse fill="none" stroke="black" cx="455.06" cy="-90" rx="63.06" ry="18"/>
<text text-anchor="middle" x="455.06" y="-85.8" font-family="Times,serif" font-size="14.00">:feature:login</text>
</g>
<!-- :core:designsystem -->
<g id="node2" class="node">
<title>:core:designsystem</title>
<ellipse fill="none" stroke="black" cx="85.06" cy="-18" rx="85.06" ry="18"/>
<text text-anchor="middle" x="85.06" y="-13.8" font-family="Times,serif" font-size="14.00">:core:designsystem</text>
</g>
<!-- :feature:login&#45;&gt;:core:designsystem -->
<g id="edge1" class="edge">
<title>:feature:login-&gt;:core:designsystem</title>
<path fill="none" stroke="black" d="M403.61,-79.27C339.81,-67.2 230.63,-46.54 158.15,-32.83"/>
<polygon fill="black" stroke="black" points="158.81,-29.39 148.34,-30.97 157.51,-36.27 158.81,-29.39"/>
</g>
<!-- :navigation -->
<g id="node3" class="node">
<title>:navigation</title>
<ellipse fill="none" stroke="black" cx="243.06" cy="-18" rx="54.48" ry="18"/>
<text text-anchor="middle" x="243.06" y="-13.8" font-family="Times,serif" font-size="14.00">:navigation</text>
</g>
<!-- :feature:login&#45;&gt;:navigation -->
<g id="edge2" class="edge">
<title>:feature:login-&gt;:navigation</title>
<path fill="none" stroke="black" d="M415.18,-75.83C380.03,-64.23 328.72,-47.29 291.28,-34.92"/>
<polygon fill="black" stroke="black" points="292.65,-31.69 282.06,-31.88 290.45,-38.34 292.65,-31.69"/>
</g>
<!-- :core:common -->
<g id="node4" class="node">
<title>:core:common</title>
<ellipse fill="none" stroke="black" cx="382.06" cy="-18" rx="66.81" ry="18"/>
<text text-anchor="middle" x="382.06" y="-13.8" font-family="Times,serif" font-size="14.00">:core:common</text>
</g>
<!-- :feature:login&#45;&gt;:core:common -->
<g id="edge3" class="edge">
<title>:feature:login-&gt;:core:common</title>
<path fill="none" stroke="black" d="M437.76,-72.41C428.73,-63.76 417.52,-53 407.52,-43.42"/>
<polygon fill="black" stroke="black" points="410.22,-41.16 400.58,-36.76 405.37,-46.21 410.22,-41.16"/>
</g>
<!-- :core:domain -->
<g id="node5" class="node">
<title>:core:domain</title>
<ellipse fill="none" stroke="black" cx="529.06" cy="-18" rx="61.99" ry="18"/>
<text text-anchor="middle" x="529.06" y="-13.8" font-family="Times,serif" font-size="14.00">:core:domain</text>
</g>
<!-- :feature:login&#45;&gt;:core:domain -->
<g id="edge4" class="edge">
<title>:feature:login-&gt;:core:domain</title>
<path fill="none" stroke="black" d="M472.59,-72.41C481.74,-63.76 493.11,-53 503.24,-43.42"/>
<polygon fill="black" stroke="black" points="505.43,-46.17 510.29,-36.75 500.62,-41.08 505.43,-46.17"/>
</g>
<!-- :core:uihelper -->
<g id="node6" class="node">
<title>:core:uihelper</title>
<ellipse fill="none" stroke="black" cx="674.06" cy="-18" rx="64.66" ry="18"/>
<text text-anchor="middle" x="674.06" y="-13.8" font-family="Times,serif" font-size="14.00">:core:uihelper</text>
</g>
<!-- :feature:login&#45;&gt;:core:uihelper -->
<g id="edge5" class="edge">
<title>:feature:login-&gt;:core:uihelper</title>
<path fill="none" stroke="black" d="M495.99,-75.92C531.64,-64.52 583.51,-47.94 622.08,-35.61"/>
<polygon fill="black" stroke="black" points="622.68,-39.1 631.14,-32.72 620.55,-32.43 622.68,-39.1"/>
</g>
<!-- :core:user -->
<g id="node7" class="node">
<title>:core:user</title>
<ellipse fill="none" stroke="black" cx="806.06" cy="-18" rx="49.11" ry="18"/>
<text text-anchor="middle" x="806.06" y="-13.8" font-family="Times,serif" font-size="14.00">:core:user</text>
</g>
<!-- :feature:login&#45;&gt;:core:user -->
<g id="edge6" class="edge">
<title>:feature:login-&gt;:core:user</title>
<path fill="none" stroke="red" stroke-width="2" d="M509.96,-80.85C569.1,-71.66 665.8,-55.44 748.06,-36 751.42,-35.21 754.88,-34.33 758.35,-33.42"/>
<polygon fill="red" stroke="red" stroke-width="2" points="757.76,-37.21 766.48,-31.19 755.91,-30.46 757.76,-37.21"/>
</g>
</g>
</svg>