<svg xmlns="http://www.w3.org/2000/svg" xmlns:xlink="http://www.w3.org/1999/xlink" width="687pt" height="116pt" viewBox="0.00 0.00 687.00 116.00">
<g id="graph0" class="graph" transform="scale(1 1) rotate(0) translate(4 112)">
<title>G</title>
<polygon fill="white" stroke="none" points="-4,4 -4,-112 682.71,-112 682.71,4 -4,4"/>
<!-- :feature:list -->
<g id="node1" class="node">
<title>:feature:list</title>
<ellipse fill="none" stroke="black" cx="365.06" cy="-90" rx="55.01" ry="18"/>
<text xml:space="preserve" text-anchor="middle" x="365.06" y="-85.8" font-family="Times,serif" font-size="14.00">:feature:list</text>
</g>
<!-- :core:designsystem -->
<g id="node2" class="node">
<title>:core:designsystem</title>
<ellipse fill="none" stroke="black" cx="85.06" cy="-18" rx="85.06" ry="18"/>
<text xml:space="preserve" text-anchor="middle" x="85.06" y="-13.8" font-family="Times,serif" font-size="14.00">:core:designsystem</text>
</g>
<!-- :feature:list&#45;&gt;:core:designsystem -->
<g id="edge1" class="edge">
<title>:feature:list-&gt;:core:designsystem</title>
<path fill="none" stroke="black" d="M322.23,-78.29C276.17,-66.78 202.44,-48.35 149.4,-35.09"/>
<polygon fill="black" stroke="black" points="150.44,-31.74 139.89,-32.71 148.74,-38.53 150.44,-31.74"/>
</g>
<!-- :navigation -->
<g id="node3" class="node">
<title>:navigation</title>
<ellipse fill="none" stroke="black" cx="243.06" cy="-18" rx="54.48" ry="18"/>
<text xml:space="preserve" text-anchor="middle" x="243.06" y="-13.8" font-family="Times,serif" font-size="14.00">:navigation</text>
</g>
<!-- :feature:list&#45;&gt;:navigation -->
<g id="edge2" class="edge">
<title>:feature:list-&gt;:navigation</title>
<path fill="none" stroke="black" d="M338.59,-73.81C321.24,-63.86 298.34,-50.72 279.31,-39.8"/>
<polygon fill="black" stroke="black" points="281.21,-36.85 270.79,-34.91 277.72,-42.93 281.21,-36.85"/>
</g>
<!-- :core:data -->
<g id="node4" class="node">
<title>:core:data</title>
<ellipse fill="none" stroke="black" cx="365.06" cy="-18" rx="49.1" ry="18"/>
<text xml:space="preserve" text-anchor="middle" x="365.06" y="-13.8" font-family="Times,serif" font-size="14.00">:core:data</text>
</g>
<!-- :feature:list&#45;&gt;:core:data -->
<g id="edge3" class="edge">
<title>:feature:list-&gt;:core:data</title>
<path fill="none" stroke="black" d="M365.06,-71.7C365.06,-64.41 365.06,-55.73 365.06,-47.54"/>
<polygon fill="black" stroke="black" points="368.56,-47.62 365.06,-37.62 361.56,-47.62 368.56,-47.62"/>
</g>
<!-- :core:uihelper -->
<g id="node5" class="node">
<title>:core:uihelper</title>
<ellipse fill="none" stroke="black" cx="497.06" cy="-18" rx="64.66" ry="18"/>
<text xml:space="preserve" text-anchor="middle" x="497.06" y="-13.8" font-family="Times,serif" font-size="14.00">:core:uihelper</text>
</g>
<!-- :feature:list&#45;&gt;:core:uihelper -->
<g id="edge4" class="edge">
<title>:feature:list-&gt;:core:uihelper</title>
<path fill="none" stroke="black" d="M393.05,-74.15C411.96,-64.13 437.17,-50.76 458.04,-39.69"/>
<polygon fill="black" stroke="black" points="459.66,-42.79 466.85,-35.02 456.38,-36.61 459.66,-42.79"/>
</g>
<!-- :core:utils -->
<g id="node6" class="node">
<title>:core:utils</title>
<ellipse fill="none" stroke="black" cx="629.06" cy="-18" rx="49.65" ry="18"/>
<text xml:space="preserve" text-anchor="middle" x="629.06" y="-13.8" font-family="Times,serif" font-size="14.00">:core:utils</text>
</g>
<!-- :feature:list&#45;&gt;:core:utils -->
<g id="edge5" class="edge">
<title>:feature:list-&gt;:core:utils</title>
<path fill="none" stroke="black" d="M408.17,-78.35C449.93,-67.93 514.98,-51.43 571.06,-36 574.19,-35.14 577.41,-34.24 580.65,-33.32"/>
<polygon fill="black" stroke="black" points="581.57,-36.7 590.21,-30.57 579.64,-29.97 581.57,-36.7"/>
</g>
</g>
</svg>