<svg xmlns="http://www.w3.org/2000/svg" xmlns:xlink="http://www.w3.org/1999/xlink" width="837pt" height="116pt" viewBox="0.00 0.00 837.00 116.00">
<g id="graph0" class="graph" transform="scale(1 1) rotate(0) translate(4 112)">
<title>G</title>
<polygon fill="white" stroke="none" points="-4,4 -4,-112 832.71,-112 832.71,4 -4,4"/>
<!-- :feature:detail -->
<g id="node1" class="node">
<title>:feature:detail</title>
<ellipse fill="none" stroke="black" cx="431.06" cy="-90" rx="64.65" ry="18"/>
<text xml:space="preserve" text-anchor="middle" x="431.06" y="-85.8" font-family="Times,serif" font-size="14.00">:feature:detail</text>
</g>
<!-- :core:designsystem -->
<g id="node2" class="node">
<title>:core:designsystem</title>
<ellipse fill="none" stroke="black" cx="85.06" cy="-18" rx="85.06" ry="18"/>
<text xml:space="preserve" text-anchor="middle" x="85.06" y="-13.8" font-family="Times,serif" font-size="14.00">:core:designsystem</text>
</g>
<!-- :feature:detail&#45;&gt;:core:designsystem -->
<g id="edge1" class="edge">
<title>:feature:detail-&gt;:core:designsystem</title>
<path fill="none" stroke="black" d="M380,-78.67C320.83,-66.7 222.93,-46.89 156.29,-33.41"/>
<polygon fill="black" stroke="black" points="157.03,-29.99 146.53,-31.44 155.64,-36.85 157.03,-29.99"/>
</g>
<!-- :navigation -->
<g id="node3" class="node">
<title>:navigation</title>
<ellipse fill="none" stroke="black" cx="243.06" cy="-18" rx="54.48" ry="18"/>
<text xml:space="preserve" text-anchor="middle" x="243.06" y="-13.8" font-family="Times,serif" font-size="14.00">:navigation</text>
</g>
<!-- :feature:detail&#45;&gt;:navigation -->
<g id="edge2" class="edge">
<title>:feature:detail-&gt;:navigation</title>
<path fill="none" stroke="black" d="M393.46,-75C363.33,-63.78 320.93,-47.99 288.82,-36.04"/>
<polygon fill="black" stroke="black" points="290.37,-32.88 279.78,-32.67 287.93,-39.44 290.37,-32.88"/>
</g>
<!-- :core:data -->
<g id="node4" class="node">
<title>:core:data</title>
<ellipse fill="none" stroke="black" cx="365.06" cy="-18" rx="49.1" ry="18"/>
<text xml:space="preserve" text-anchor="middle" x="365.06" y="-13.8" font-family="Times,serif" font-size="14.00">:core:data</text>
</g>
<!-- :feature:detail&#45;&gt;:core:data -->
<g id="edge3" class="edge">
<title>:feature:detail-&gt;:core:data</title>
<path fill="none" stroke="black" d="M415.42,-72.41C407.36,-63.87 397.38,-53.28 388.43,-43.79"/>
<polygon fill="black" stroke="black" points="391.03,-41.45 381.62,-36.57 385.94,-46.25 391.03,-41.45"/>
</g>
<!-- :core:database -->
<g id="node5" class="node">
<title>:core:database</title>
<ellipse fill="none" stroke="black" cx="498.06" cy="-18" rx="66.26" ry="18"/>
<text xml:space="preserve" text-anchor="middle" x="498.06" y="-13.8" font-family="Times,serif" font-size="14.00">:core:database</text>
</g>
<!-- :feature:detail&#45;&gt;:core:database -->
<g id="edge4" class="edge">
<title>:feature:detail-&gt;:core:database</title>
<path fill="none" stroke="black" d="M446.94,-72.41C455.11,-63.87 465.25,-53.28 474.33,-43.79"/>
<polygon fill="black" stroke="black" points="476.86,-46.21 481.25,-36.56 471.8,-41.37 476.86,-46.21"/>
</g>
<!-- :core:uihelper -->
<g id="node6" class="node">
<title>:core:uihelper</title>
<ellipse fill="none" stroke="black" cx="647.06" cy="-18" rx="64.66" ry="18"/>
<text xml:space="preserve" text-anchor="middle" x="647.06" y="-13.8" font-family="Times,serif" font-size="14.00">:core:uihelper</text>
</g>
<!-- :feature:detail&#45;&gt;:core:uihelper -->
<g id="edge5" class="edge">
<title>:feature:detail-&gt;:core:uihelper</title>
<path fill="none" stroke="black" d="M472.19,-75.67C507.18,-64.33 557.59,-48 595.3,-35.77"/>
<polygon fill="black" stroke="black" points="596.2,-39.16 604.63,-32.75 594.04,-32.5 596.2,-39.16"/>
</g>
<!-- :core:utils -->
<g id="node7" class="node">
<title>:core:utils</title>
<ellipse fill="none" stroke="black" cx="779.06" cy="-18" rx="49.65" ry="18"/>
<text xml:space="preserve" text-anchor="middle" x="779.06" y="-13.8" font-family="Times,serif" font-size="14.00">:core:utils</text>
</g>
<!-- :feature:detail&#45;&gt;:core:utils -->
<g id="edge6" class="edge">
<title>:feature:detail-&gt;:core:utils</title>
<path fill="none" stroke="black" d="M487.01,-80.55C545.68,-71.28 640.38,-55.14 721.06,-36 724.37,-35.21 727.78,-34.35 731.2,-33.45"/>
<polygon fill="black" stroke="black" points="731.91,-36.89 740.62,-30.86 730.05,-30.14 731.91,-36.89"/>
</g>
</g>
</svg>