<svg width="333" height="69" viewBox="0 0 333 69" fill="none" xmlns="http://www.w3.org/2000/svg">
<rect x="0.871826" width="68.2051" height="68.2051" rx="5" fill="#FFD130"/>
<path fill-rule="evenodd" clip-rule="evenodd" d="M50.438 39.0803L13.2089 39.0514L13.198 49.8876L50.4391 49.9165H57.1615V24.0079V18.3704H50.4391H13.2416V24.0204L50.4362 24.0079V24.0204L50.438 39.0803Z" fill="black"/>
<path fill-rule="evenodd" clip-rule="evenodd" d="M21.2586 18.3247L18.0221 24.3768L21.9987 24.3757L25.1575 18.3239L21.2586 18.3247Z" fill="#FFD130"/>
<path fill-rule="evenodd" clip-rule="evenodd" d="M30.2558 18.0794L27.0193 24.1315L30.9959 24.1303L34.1547 18.0785L30.2558 18.0794Z" fill="#FFD130"/>
<path fill-rule="evenodd" clip-rule="evenodd" d="M39.253 18.0794L36.0165 24.1315L39.9931 24.1303L43.1519 18.0785L39.253 18.0794Z" fill="#FFD130"/>
<path fill-rule="evenodd" clip-rule="evenodd" d="M48.2502 18.0794L45.0137 24.1315L48.9903 24.1303L52.1491 18.0785L48.2502 18.0794Z" fill="#FFD130"/>
<path d="M91.4769 47.6025L96.1169 17.9225H107.997C110.077 17.9225 111.677 18.1892 112.797 18.7225C113.917 19.2559 114.704 19.9892 115.157 20.9225C115.61 21.8559 115.837 22.9225 115.837 24.1225C115.837 24.4692 115.824 24.8159 115.797 25.1625C115.77 25.5092 115.73 25.8692 115.677 26.2425C115.437 27.6825 114.837 28.9492 113.877 30.0425C112.944 31.1092 111.73 31.8159 110.237 32.1625C111.17 32.4292 111.957 32.8025 112.597 33.2825C113.237 33.7359 113.717 34.3492 114.037 35.1225C114.384 35.8959 114.557 36.8692 114.557 38.0425C114.557 38.3092 114.544 38.6425 114.517 39.0425C114.517 39.4159 114.45 39.9225 114.317 40.5625C113.89 43.1759 112.744 45.0025 110.877 46.0425C109.037 47.0825 106.53 47.6025 103.357 47.6025H91.4769ZM99.3569 41.4025H104.237C105.064 41.4025 105.73 41.2959 106.237 41.0825C106.744 40.8692 107.13 40.5359 107.397 40.0825C107.69 39.6292 107.89 39.0292 107.997 38.2825C108.05 38.1225 108.077 37.9625 108.077 37.8025C108.077 37.6425 108.077 37.4825 108.077 37.3225C108.077 36.5759 107.837 36.0159 107.357 35.6425C106.904 35.2692 106.157 35.0825 105.117 35.0825H100.317L99.3569 41.4025ZM101.157 29.8425H105.917C106.85 29.8425 107.517 29.6159 107.917 29.1625C108.344 28.6825 108.637 28.1225 108.797 27.4825C108.85 27.1892 108.89 26.9225 108.917 26.6825C108.97 26.4425 108.997 26.2292 108.997 26.0425C108.997 25.3492 108.784 24.8559 108.357 24.5625C107.957 24.2692 107.344 24.1225 106.517 24.1225H102.077L101.157 29.8425ZM115.54 47.6025L129.3 17.9225H137.94L142.26 47.6025H135.1L134.46 42.2025H124.98L122.62 47.6025H115.54ZM127.58 36.0025H133.82L132.62 23.8425L127.58 36.0025ZM144.185 47.6025L145.105 41.7625L159.865 24.1225H147.905L148.905 17.9225H168.745L167.825 23.8025L153.105 41.4025H165.465L164.465 47.6025H144.185ZM167.037 47.6025L167.957 41.7625L182.717 24.1225H170.757L171.757 17.9225H191.597L190.677 23.8025L175.957 41.4025H188.317L187.317 47.6025H167.037ZM199.93 47.6025L208.29 17.9225H214.77L217.81 39.6025L227.77 17.9225H234.17L233.01 47.6025H226.33L227.05 30.2025L219.73 47.6025H213.25L211.45 30.4825L206.77 47.6025H199.93ZM245.206 47.8425C243.286 47.8425 241.673 47.5625 240.366 47.0025C239.086 46.4159 238.126 45.5625 237.486 44.4425C236.846 43.3225 236.526 41.9359 236.526 40.2825C236.526 39.4825 236.553 38.7492 236.606 38.0825C236.66 37.4159 236.74 36.7759 236.846 36.1625C237.193 34.0025 237.673 32.2559 238.286 30.9225C238.9 29.5625 239.673 28.5225 240.606 27.8025C241.54 27.0559 242.673 26.5492 244.006 26.2825C245.34 25.9892 246.886 25.8425 248.646 25.8425C251.02 25.8425 252.82 26.1359 254.046 26.7225C255.3 27.2825 256.14 28.1492 256.566 29.3225C257.02 30.4959 257.246 31.9759 257.246 33.7625C257.246 34.4025 257.22 35.0959 257.166 35.8425C257.113 36.5892 257.02 37.3492 256.886 38.1225C256.486 40.7359 255.806 42.7492 254.846 44.1625C253.913 45.5759 252.66 46.5492 251.086 47.0825C249.513 47.5892 247.553 47.8425 245.206 47.8425ZM245.926 42.3225C246.566 42.3225 247.113 42.2425 247.566 42.0825C248.02 41.9225 248.393 41.6692 248.686 41.3225C248.98 40.9492 249.233 40.4292 249.446 39.7625C249.66 39.0692 249.846 38.1892 250.006 37.1225C250.14 36.3759 250.233 35.7092 250.286 35.1225C250.34 34.5359 250.366 33.9892 250.366 33.4825C250.366 32.6292 250.153 32.0425 249.726 31.7225C249.326 31.4025 248.66 31.2425 247.726 31.2425C247.06 31.2425 246.5 31.3225 246.046 31.4825C245.62 31.6425 245.26 31.9359 244.966 32.3625C244.673 32.7892 244.42 33.4025 244.206 34.2025C243.993 34.9759 243.806 35.9492 243.646 37.1225C243.54 37.6825 243.46 38.1892 243.406 38.6425C243.38 39.0959 243.366 39.5359 243.366 39.9625C243.366 40.5759 243.46 41.0559 243.646 41.4025C243.833 41.7492 244.113 41.9892 244.486 42.1225C244.86 42.2559 245.34 42.3225 245.926 42.3225ZM262.631 47.6025L259.151 26.0825H266.271L267.751 41.2025L271.671 32.2425C272.124 31.1759 272.498 30.1492 272.791 29.1625C273.084 28.1759 273.284 27.0425 273.391 25.7625H279.791C279.764 27.4425 279.431 29.0825 278.791 30.6825C278.178 32.2559 277.524 33.7359 276.831 35.1225L270.591 47.6025H262.631ZM284.739 23.1625C284.499 23.1625 284.299 23.0825 284.139 22.9225C284.006 22.7625 283.966 22.5492 284.019 22.2825L284.659 18.0825C284.766 17.4692 285.113 17.1625 285.699 17.1625H291.059C291.353 17.1625 291.553 17.2559 291.659 17.4425C291.766 17.6025 291.793 17.8159 291.739 18.0825L291.099 22.2825C290.993 22.8692 290.673 23.1625 290.139 23.1625H284.739ZM280.099 47.6025L283.459 26.0825H290.379L286.979 47.6025H280.099ZM300.163 47.8425C298.083 47.8425 296.416 47.5225 295.163 46.8825C293.936 46.2159 293.043 45.2692 292.483 44.0425C291.949 42.8159 291.683 41.3492 291.683 39.6425C291.683 38.9225 291.723 38.2425 291.803 37.6025C291.883 36.9359 291.976 36.2959 292.083 35.6825C292.456 33.2825 293.136 31.3625 294.123 29.9225C295.109 28.4825 296.389 27.4425 297.963 26.8025C299.536 26.1359 301.363 25.8025 303.443 25.8025C304.483 25.8025 305.496 25.9092 306.483 26.1225C307.469 26.3092 308.363 26.6425 309.163 27.1225C309.963 27.5759 310.603 28.2292 311.083 29.0825C311.589 29.9359 311.843 31.0425 311.843 32.4025C311.843 33.9225 311.603 35.1759 311.123 36.1625C310.643 37.1225 309.976 37.8692 309.123 38.4025C308.296 38.9092 307.336 39.2692 306.243 39.4825C305.176 39.6692 304.016 39.7625 302.763 39.7625C301.883 39.7625 301.069 39.7359 300.323 39.6825C299.603 39.6025 299.016 39.5092 298.563 39.4025C298.536 39.5625 298.509 39.7492 298.483 39.9625C298.483 40.1492 298.483 40.3359 298.483 40.5225C298.483 41.2959 298.829 41.8692 299.523 42.2425C300.216 42.6159 301.349 42.8025 302.923 42.8025H309.963L309.323 46.8425C308.176 47.0825 306.803 47.3092 305.203 47.5225C303.629 47.7359 301.949 47.8425 300.163 47.8425ZM301.083 36.0025C302.176 36.0025 303.029 35.8959 303.643 35.6825C304.283 35.4692 304.736 35.1492 305.003 34.7225C305.269 34.2959 305.403 33.7759 305.403 33.1625C305.403 32.4692 305.203 31.9492 304.803 31.6025C304.403 31.2559 303.789 31.0825 302.963 31.0825C302.189 31.0825 301.536 31.2559 301.003 31.6025C300.469 31.9492 300.043 32.4825 299.723 33.2025C299.403 33.8959 299.163 34.7625 299.003 35.8025C299.323 35.8292 299.656 35.8692 300.003 35.9225C300.376 35.9759 300.736 36.0025 301.083 36.0025ZM321.317 47.8425C320.357 47.8425 319.463 47.8159 318.637 47.7625C317.837 47.7092 317.077 47.6425 316.357 47.5625C315.663 47.4559 315.01 47.3359 314.397 47.2025C313.81 47.0425 313.25 46.8825 312.717 46.7225L313.357 42.6825H322.877C323.383 42.6825 323.797 42.5892 324.117 42.4025C324.437 42.1892 324.623 41.9092 324.677 41.5625L324.797 40.9225C324.823 40.7892 324.837 40.6959 324.837 40.6425C324.837 40.5892 324.837 40.5492 324.837 40.5225C324.837 39.9092 324.397 39.6025 323.517 39.6025H320.557C319.383 39.6025 318.317 39.4559 317.357 39.1625C316.423 38.8425 315.677 38.3492 315.117 37.6825C314.557 36.9892 314.277 36.1092 314.277 35.0425C314.277 34.7492 314.277 34.4559 314.277 34.1625C314.303 33.8425 314.343 33.5092 314.397 33.1625L314.637 31.6825C314.85 30.5625 315.263 29.5625 315.877 28.6825C316.517 27.8025 317.477 27.1092 318.757 26.6025C320.037 26.0959 321.743 25.8425 323.877 25.8425C324.783 25.8425 325.743 25.8959 326.757 26.0025C327.77 26.0825 328.743 26.2159 329.677 26.4025C330.637 26.5625 331.463 26.7625 332.157 27.0025L331.517 31.0425H322.557C321.997 31.0425 321.583 31.1359 321.317 31.3225C321.05 31.4825 320.863 31.7759 320.757 32.2025L320.677 32.5625C320.65 32.6959 320.623 32.8292 320.597 32.9625C320.597 33.0692 320.597 33.1625 320.597 33.2425C320.597 33.5092 320.69 33.7225 320.877 33.8825C321.063 34.0425 321.437 34.1225 321.997 34.1225H325.397C327.157 34.1225 328.57 34.5092 329.637 35.2825C330.703 36.0559 331.237 37.1092 331.237 38.4425C331.237 38.7359 331.223 39.0425 331.197 39.3625C331.197 39.6825 331.17 40.0159 331.117 40.3625L330.837 42.2425C330.517 44.2959 329.517 45.7492 327.837 46.6025C326.183 47.4292 324.01 47.8425 321.317 47.8425Z" fill="white"/>
</svg>
