<svg width="332" height="69" viewBox="0 0 332 69" fill="none" xmlns="http://www.w3.org/2000/svg">
<rect width="68.2051" height="68.2051" rx="5" fill="#FFD130"/>
<path fill-rule="evenodd" clip-rule="evenodd" d="M49.5662 39.0803L12.337 39.0514L12.3262 49.8876L49.5673 49.9165H56.2897V24.0079V18.3704H49.5673H12.3698V24.0204L49.5644 24.0079V24.0204L49.5662 39.0803Z" fill="black"/>
<path fill-rule="evenodd" clip-rule="evenodd" d="M20.3868 18.3247L17.1503 24.3768L21.1269 24.3757L24.2857 18.3238L20.3868 18.3247Z" fill="#FFD130"/>
<path fill-rule="evenodd" clip-rule="evenodd" d="M29.384 18.0794L26.1475 24.1315L30.1241 24.1303L33.2829 18.0785L29.384 18.0794Z" fill="#FFD130"/>
<path fill-rule="evenodd" clip-rule="evenodd" d="M38.3812 18.0794L35.1447 24.1315L39.1212 24.1303L42.2801 18.0785L38.3812 18.0794Z" fill="#FFD130"/>
<path fill-rule="evenodd" clip-rule="evenodd" d="M47.3784 18.0794L44.1418 24.1315L48.1184 24.1303L51.2773 18.0785L47.3784 18.0794Z" fill="#FFD130"/>
<path d="M90.6051 47.6026L95.2451 17.9226H107.125C109.205 17.9226 110.805 18.1892 111.925 18.7226C113.045 19.2559 113.832 19.9892 114.285 20.9226C114.738 21.8559 114.965 22.9226 114.965 24.1226C114.965 24.4692 114.952 24.8159 114.925 25.1626C114.898 25.5092 114.858 25.8692 114.805 26.2426C114.565 27.6826 113.965 28.9492 113.005 30.0426C112.072 31.1092 110.858 31.8159 109.365 32.1626C110.298 32.4292 111.085 32.8026 111.725 33.2826C112.365 33.7359 112.845 34.3492 113.165 35.1226C113.512 35.8959 113.685 36.8692 113.685 38.0426C113.685 38.3092 113.672 38.6426 113.645 39.0426C113.645 39.4159 113.578 39.9226 113.445 40.5626C113.018 43.1759 111.872 45.0026 110.005 46.0426C108.165 47.0826 105.658 47.6026 102.485 47.6026H90.6051ZM98.4851 41.4026H103.365C104.192 41.4026 104.858 41.2959 105.365 41.0826C105.872 40.8692 106.258 40.5359 106.525 40.0826C106.818 39.6292 107.018 39.0292 107.125 38.2826C107.178 38.1226 107.205 37.9626 107.205 37.8026C107.205 37.6426 107.205 37.4826 107.205 37.3226C107.205 36.5759 106.965 36.0159 106.485 35.6426C106.032 35.2692 105.285 35.0826 104.245 35.0826H99.4451L98.4851 41.4026ZM100.285 29.8426H105.045C105.978 29.8426 106.645 29.6159 107.045 29.1626C107.472 28.6826 107.765 28.1226 107.925 27.4826C107.978 27.1892 108.018 26.9226 108.045 26.6826C108.098 26.4426 108.125 26.2292 108.125 26.0426C108.125 25.3492 107.912 24.8559 107.485 24.5626C107.085 24.2692 106.472 24.1226 105.645 24.1226H101.205L100.285 29.8426ZM114.668 47.6026L128.428 17.9226H137.068L141.388 47.6026H134.228L133.588 42.2026H124.108L121.748 47.6026H114.668ZM126.708 36.0026H132.948L131.748 23.8426L126.708 36.0026ZM143.313 47.6026L144.233 41.7626L158.993 24.1226H147.033L148.033 17.9226H167.873L166.953 23.8026L152.233 41.4026H164.593L163.593 47.6026H143.313ZM166.165 47.6026L167.085 41.7626L181.845 24.1226H169.885L170.885 17.9226H190.725L189.805 23.8026L175.085 41.4026H187.445L186.445 47.6026H166.165ZM199.058 47.6026L207.418 17.9226H213.898L216.938 39.6026L226.898 17.9226H233.298L232.138 47.6026H225.458L226.178 30.2026L218.858 47.6026H212.378L210.578 30.4826L205.898 47.6026H199.058ZM244.334 47.8426C242.414 47.8426 240.801 47.5626 239.494 47.0026C238.214 46.4159 237.254 45.5626 236.614 44.4426C235.974 43.3226 235.654 41.9359 235.654 40.2826C235.654 39.4826 235.681 38.7492 235.734 38.0826C235.788 37.4159 235.868 36.7759 235.974 36.1626C236.321 34.0026 236.801 32.2559 237.414 30.9226C238.028 29.5626 238.801 28.5226 239.734 27.8026C240.668 27.0559 241.801 26.5492 243.134 26.2826C244.468 25.9892 246.014 25.8426 247.774 25.8426C250.148 25.8426 251.948 26.1359 253.174 26.7226C254.428 27.2826 255.268 28.1492 255.694 29.3226C256.148 30.4959 256.374 31.9759 256.374 33.7626C256.374 34.4026 256.348 35.0959 256.294 35.8426C256.241 36.5892 256.148 37.3492 256.014 38.1226C255.614 40.7359 254.934 42.7492 253.974 44.1626C253.041 45.5759 251.788 46.5492 250.214 47.0826C248.641 47.5892 246.681 47.8426 244.334 47.8426ZM245.054 42.3226C245.694 42.3226 246.241 42.2426 246.694 42.0826C247.148 41.9226 247.521 41.6692 247.814 41.3226C248.108 40.9492 248.361 40.4292 248.574 39.7626C248.788 39.0692 248.974 38.1892 249.134 37.1226C249.268 36.3759 249.361 35.7092 249.414 35.1226C249.468 34.5359 249.494 33.9892 249.494 33.4826C249.494 32.6292 249.281 32.0426 248.854 31.7226C248.454 31.4026 247.788 31.2426 246.854 31.2426C246.188 31.2426 245.628 31.3226 245.174 31.4826C244.748 31.6426 244.388 31.9359 244.094 32.3626C243.801 32.7892 243.548 33.4026 243.334 34.2026C243.121 34.9759 242.934 35.9492 242.774 37.1226C242.668 37.6826 242.588 38.1892 242.534 38.6426C242.508 39.0959 242.494 39.5359 242.494 39.9626C242.494 40.5759 242.588 41.0559 242.774 41.4026C242.961 41.7492 243.241 41.9892 243.614 42.1226C243.988 42.2559 244.468 42.3226 245.054 42.3226ZM261.759 47.6026L258.279 26.0826H265.399L266.879 41.2026L270.799 32.2426C271.252 31.1759 271.626 30.1492 271.919 29.1626C272.212 28.1759 272.412 27.0426 272.519 25.7626H278.919C278.892 27.4426 278.559 29.0826 277.919 30.6826C277.306 32.2559 276.652 33.7359 275.959 35.1226L269.719 47.6026H261.759ZM283.868 23.1626C283.628 23.1626 283.428 23.0826 283.268 22.9226C283.134 22.7626 283.094 22.5492 283.148 22.2826L283.788 18.0826C283.894 17.4692 284.241 17.1626 284.828 17.1626H290.188C290.481 17.1626 290.681 17.2559 290.788 17.4426C290.894 17.6026 290.921 17.8159 290.868 18.0826L290.228 22.2826C290.121 22.8692 289.801 23.1626 289.268 23.1626H283.868ZM279.228 47.6026L282.588 26.0826H289.508L286.108 47.6026H279.228ZM299.291 47.8426C297.211 47.8426 295.544 47.5226 294.291 46.8826C293.064 46.2159 292.171 45.2692 291.611 44.0426C291.077 42.8159 290.811 41.3492 290.811 39.6426C290.811 38.9226 290.851 38.2426 290.931 37.6026C291.011 36.9359 291.104 36.2959 291.211 35.6826C291.584 33.2826 292.264 31.3626 293.251 29.9226C294.237 28.4826 295.517 27.4426 297.091 26.8026C298.664 26.1359 300.491 25.8026 302.571 25.8026C303.611 25.8026 304.624 25.9092 305.611 26.1226C306.597 26.3092 307.491 26.6426 308.291 27.1226C309.091 27.5759 309.731 28.2292 310.211 29.0826C310.717 29.9359 310.971 31.0426 310.971 32.4026C310.971 33.9226 310.731 35.1759 310.251 36.1626C309.771 37.1226 309.104 37.8692 308.251 38.4026C307.424 38.9092 306.464 39.2692 305.371 39.4826C304.304 39.6692 303.144 39.7626 301.891 39.7626C301.011 39.7626 300.197 39.7359 299.451 39.6826C298.731 39.6026 298.144 39.5092 297.691 39.4026C297.664 39.5626 297.637 39.7492 297.611 39.9626C297.611 40.1492 297.611 40.3359 297.611 40.5226C297.611 41.2959 297.957 41.8692 298.651 42.2426C299.344 42.6159 300.477 42.8026 302.051 42.8026H309.091L308.451 46.8426C307.304 47.0826 305.931 47.3092 304.331 47.5226C302.757 47.7359 301.077 47.8426 299.291 47.8426ZM300.211 36.0026C301.304 36.0026 302.157 35.8959 302.771 35.6826C303.411 35.4692 303.864 35.1492 304.131 34.7226C304.397 34.2959 304.531 33.7759 304.531 33.1626C304.531 32.4692 304.331 31.9492 303.931 31.6026C303.531 31.2559 302.917 31.0826 302.091 31.0826C301.317 31.0826 300.664 31.2559 300.131 31.6026C299.597 31.9492 299.171 32.4826 298.851 33.2026C298.531 33.8959 298.291 34.7626 298.131 35.8026C298.451 35.8292 298.784 35.8692 299.131 35.9226C299.504 35.9759 299.864 36.0026 300.211 36.0026ZM320.445 47.8426C319.485 47.8426 318.591 47.8159 317.765 47.7626C316.965 47.7092 316.205 47.6426 315.485 47.5626C314.791 47.4559 314.138 47.3359 313.525 47.2026C312.938 47.0426 312.378 46.8826 311.845 46.7226L312.485 42.6826H322.005C322.511 42.6826 322.925 42.5892 323.245 42.4026C323.565 42.1892 323.751 41.9092 323.805 41.5626L323.925 40.9226C323.951 40.7892 323.965 40.6959 323.965 40.6426C323.965 40.5892 323.965 40.5492 323.965 40.5226C323.965 39.9092 323.525 39.6026 322.645 39.6026H319.685C318.511 39.6026 317.445 39.4559 316.485 39.1626C315.551 38.8426 314.805 38.3492 314.245 37.6826C313.685 36.9892 313.405 36.1092 313.405 35.0426C313.405 34.7492 313.405 34.4559 313.405 34.1626C313.431 33.8426 313.471 33.5092 313.525 33.1626L313.765 31.6826C313.978 30.5626 314.391 29.5626 315.005 28.6826C315.645 27.8026 316.605 27.1092 317.885 26.6026C319.165 26.0959 320.871 25.8426 323.005 25.8426C323.911 25.8426 324.871 25.8959 325.885 26.0026C326.898 26.0826 327.871 26.2159 328.805 26.4026C329.765 26.5626 330.591 26.7626 331.285 27.0026L330.645 31.0426H321.685C321.125 31.0426 320.711 31.1359 320.445 31.3226C320.178 31.4826 319.991 31.7759 319.885 32.2026L319.805 32.5626C319.778 32.6959 319.751 32.8292 319.725 32.9626C319.725 33.0692 319.725 33.1626 319.725 33.2426C319.725 33.5092 319.818 33.7226 320.005 33.8826C320.191 34.0426 320.565 34.1226 321.125 34.1226H324.525C326.285 34.1226 327.698 34.5092 328.765 35.2826C329.831 36.0559 330.365 37.1092 330.365 38.4426C330.365 38.7359 330.351 39.0426 330.325 39.3626C330.325 39.6826 330.298 40.0159 330.245 40.3626L329.965 42.2426C329.645 44.2959 328.645 45.7492 326.965 46.6026C325.311 47.4292 323.138 47.8426 320.445 47.8426Z" fill="black"/>
</svg>
