<svg width="166" height="166" viewBox="0 0 166 166" fill="none" xmlns="http://www.w3.org/2000/svg">
<rect width="166" height="166" rx="16" fill="#FFD130"/>
<path fill-rule="evenodd" clip-rule="evenodd" d="M120.636 95.115L30.0264 95.0446L30 121.418L120.639 121.489H137V58.4312V44.7104H120.639H30.1062V58.4617L120.632 58.4312V58.4617L120.636 95.115Z" fill="black"/>
<path fill-rule="evenodd" clip-rule="evenodd" d="M49.6183 44.5992L41.7411 59.329L51.4195 59.3264L59.1076 44.5972L49.6183 44.5992Z" fill="#FFD130"/>
<path fill-rule="evenodd" clip-rule="evenodd" d="M71.5159 44.0022L63.6387 58.732L73.317 58.7292L81.0052 44L71.5159 44.0022Z" fill="#FFD130"/>
<path fill-rule="evenodd" clip-rule="evenodd" d="M93.4136 44.0022L85.5364 58.732L95.2147 58.7292L102.903 44L93.4136 44.0022Z" fill="#FFD130"/>
<path fill-rule="evenodd" clip-rule="evenodd" d="M115.311 44.0022L107.434 58.732L117.112 58.7292L124.801 44L115.311 44.0022Z" fill="#FFD130"/>
</svg>
